<?xml version="1.0" encoding="UTF-8"?>
<svg xmlns="http://www.w3.org/2000/svg" width="1429.3" height="667.7" viewBox="0 0 1429.3 667.7">
  <defs>
    <style>
      .uuid-19328dc0-a2d7-4d2a-ae84-3f5491a816a6 {
        fill: #e9f98d;
      }

      .uuid-34e2ee8a-98f8-4420-a018-8cc5710b34e4 {
        isolation: isolate;
      }

      .uuid-941f1ab7-b20b-4fd6-9111-81cd9d84eaa0 {
        mix-blend-mode: exclusion;
      }
    </style>
  </defs>
  <g class="uuid-34e2ee8a-98f8-4420-a018-8cc5710b34e4">
    <g id="uuid-a40c292a-5f68-40e7-a7c0-0e50a1183772" data-name="Layer 2">
      <g id="uuid-b264c783-9e3f-4ae4-941c-e1ff6a8a7fa1" data-name="Capa 1">
        <g class="uuid-941f1ab7-b20b-4fd6-9111-81cd9d84eaa0">
          <g>
            <path class="uuid-19328dc0-a2d7-4d2a-ae84-3f5491a816a6" d="M2.3,599.8c-.6-.2-.8,.5,.6,1.4h1.6l-2.2-1.4Z"/>
            <path class="uuid-19328dc0-a2d7-4d2a-ae84-3f5491a816a6" d="M9.8,608.2c1.9,.8,4.2,1.4,3.7,0-2.1-.4-2.3-.9-4.6-1.3-1.4-1-2.1-2.1-1.6-2.2-.6-.2-1.9-1.8-3-1.9,1.2,1.9,3.3,3.8,6,5,.4,.5-.3,.4-.5,.5Z"/>
            <path class="uuid-19328dc0-a2d7-4d2a-ae84-3f5491a816a6" d="M164.4,650.5h-1.1c.3,0,.7,0,1.1,0Z"/>
            <path class="uuid-19328dc0-a2d7-4d2a-ae84-3f5491a816a6" d="M261.4,621.1c-.7,.4-.9,.6-.9,.7,.6-.4,1.1-.7,.9-.7Z"/>
            <path class="uuid-19328dc0-a2d7-4d2a-ae84-3f5491a816a6" d="M277.2,613.5c-.3,.2-.6,.3-.9,.5,.4-.1,.8-.3,.9-.5Z"/>
            <path class="uuid-19328dc0-a2d7-4d2a-ae84-3f5491a816a6" d="M164.4,650.5h2.7c.2-.3-1.4,0-2.7,0Z"/>
            <path class="uuid-19328dc0-a2d7-4d2a-ae84-3f5491a816a6" d="M29.8,618.7c-.5-.2-1-.4-1.4-.5,.4,.2,.8,.4,1.2,.6,0,0,0,0,.2,0Z"/>
            <path class="uuid-19328dc0-a2d7-4d2a-ae84-3f5491a816a6" d="M119.5,651.7h-.8c-.3,0-.5,.1-.7,.3l1.6-.3Z"/>
            <path class="uuid-19328dc0-a2d7-4d2a-ae84-3f5491a816a6" d="M85.3,646.2c.8,.2,1.2-.6,1.6-.8-.5,.2-1.1,.3-1.8,.2,0,.2,0,.4,.2,.7Z"/>
            <path class="uuid-19328dc0-a2d7-4d2a-ae84-3f5491a816a6" d="M34.8,625.4l-.9-.4c.2,0,.6,.3,.9,.4Z"/>
            <path class="uuid-19328dc0-a2d7-4d2a-ae84-3f5491a816a6" d="M144.2,652.8c0,.1,.2,.2,.3,.3,0-.1-.1-.2-.3-.3Z"/>
            <path class="uuid-19328dc0-a2d7-4d2a-ae84-3f5491a816a6" d="M484.8,.7c0,0,0,0,0,.1,.2,0,.3-.1,0-.1Z"/>
            <path class="uuid-19328dc0-a2d7-4d2a-ae84-3f5491a816a6" d="M524.2,8.3h-.6c0,.1-.2,.3-.2,.4l.7-.4Z"/>
            <path class="uuid-19328dc0-a2d7-4d2a-ae84-3f5491a816a6" d="M304.4,596.6c0,0,0,0-.1,0-.6,.6-.2,.3,.1,0Z"/>
            <path class="uuid-19328dc0-a2d7-4d2a-ae84-3f5491a816a6" d="M319,336.7c1.1,3.2-3.7-4-1.7,.6,0-.6,3.5,3.1,1.7-.6Z"/>
            <path class="uuid-19328dc0-a2d7-4d2a-ae84-3f5491a816a6" d="M30.5,619.2c.4,.2,.8,.4,1.2,.7-.5-.3-.9-.5-1.2-.7Z"/>
            <path class="uuid-19328dc0-a2d7-4d2a-ae84-3f5491a816a6" d="M317.3,337.4h0l.2,.5c0-.2-.1-.3-.2-.5Z"/>
            <path class="uuid-19328dc0-a2d7-4d2a-ae84-3f5491a816a6" d="M355.7,543.3c-.2,0-.5,.2-.7,.5,0,0,.3,0,.7-.5Z"/>
            <path class="uuid-19328dc0-a2d7-4d2a-ae84-3f5491a816a6" d="M318.1,583.6l1.1-.8c-.5,.3-.8,.6-1.1,.8Z"/>
            <path class="uuid-19328dc0-a2d7-4d2a-ae84-3f5491a816a6" d="M366.6,516.5c.3-.7,.5-.9,.6-1.9,0,0-.1,.2-.2,.3,0,.4,0,.9-.5,1.6Z"/>
            <path class="uuid-19328dc0-a2d7-4d2a-ae84-3f5491a816a6" d="M371.8,487c0,.2-.1,.4-.2,.5,0,.3,0,.6,0,.9l.2-1.5Z"/>
            <path class="uuid-19328dc0-a2d7-4d2a-ae84-3f5491a816a6" d="M395.3,11.1c.7,0,1.1,.2,1.5,.3-.3-.2,.6-.7,.9-.9,.2-.1,.2-.2-.1,0-.3,0-1,.2-2.3,.6Z"/>
            <path class="uuid-19328dc0-a2d7-4d2a-ae84-3f5491a816a6" d="M29.6,619.1c.3,0,.5,0,.9,.1-.3-.2-.6-.3-.9-.4-.1,0-.2,.2,0,.3Z"/>
            <path class="uuid-19328dc0-a2d7-4d2a-ae84-3f5491a816a6" d="M360.6,513.4c.5-1.4,1-2.8,1.3-4.3-.2,.6-.4,1.3-.6,2-.2,.7-.5,1.5-.7,2.3Z"/>
            <path class="uuid-19328dc0-a2d7-4d2a-ae84-3f5491a816a6" d="M251.2,155.4v-1.1c0,.4,0,.8,0,1.1Z"/>
            <path class="uuid-19328dc0-a2d7-4d2a-ae84-3f5491a816a6" d="M364.3,496c.4-.8,.7-1.6,.9-2.5,0-.2,0-.4-.2-.5-.2,1-.4,2-.7,3Z"/>
            <path class="uuid-19328dc0-a2d7-4d2a-ae84-3f5491a816a6" d="M396.8,11.4s0,0,0,0c0,0,0,0,0,0Z"/>
            <path class="uuid-19328dc0-a2d7-4d2a-ae84-3f5491a816a6" d="M426.9,3.1c-4.5,.7-1.9,1.4-2.8,2.2-5.2,1.1-2.6-.4-4.5-.7-3.3,.9-5.6,2.5-8,2.9-.2-.1-.7-.1-.2-.4-.8,.4-1.9,.7-3.1,1-1.2,.3-2.5,.7-3.8,1-2.6,.7-5.3,1.4-7.2,2.5-.3,0-.5,0-.6-.1,.8,.4,1,.9,1,1.3-1.9,.5-3.4,1.7-4.3,1.2,1.2-.3,1.2-.6,1.7-1l-1.9,.9c-2.1-.5,2.7-1.2,2.4-1.9-1.9,.7-4,1.7-5.9,2.5-2,.8-3.8,1.5-5.3,1.9-.5-.4,1.2-1.1,2.6-1.5,1.3-.5,2.2-.8,0-.6l4.8-1c-4-.5,2.9-.7-.9-1.4-3.1,.8-4.9,1.4-6.5,2.1-1.7,.7-3.3,1.4-6.4,2.4-1.2,1,.7,.6-.4,1.6-1,.5-1.9,.9-2.7,1.1-.8,.3-1.4,.5-2,.7-1.2,.3-2.1,.3-2.9,.3-1.6,0-2.9,0-5.8,1.8-1.3,1.3-1.4,2.8-6,4.2l1-1.7c-2.9,1.3-3.5,2-4.2,2.7-.3,.3-.7,.7-1.4,1-.7,.4-1.6,.9-3.1,1.5,.4-.5,1.4-1.1,2.3-1.6,.8-.5,1.5-.8,1-.7-4.2,1.1-2.4,2-5.2,3.5l-1.1-.6c-5.9,3.2-11.8,7.7-17.7,11.9,.2-.5,1-1.4-.6-.7-7.4,5.6-16,11.8-23.1,17.4-.6,1-1.3,2-1.9,3-.6,.5-1.3,.7-.8,0-2.7,2.2,.3,.5-.7,2-1.4,1.4-2.2,1.5-1.5,.4-1.9,2.4-4.7,5.9-7.5,9.3-1.4,1.7-2.8,3.5-4.2,5-1.4,1.6-2.6,3-3.8,4.1l.6-1.2c-1.7,1.9-2.2,3.3-2.7,4.6-.5,1.3-1.1,2.6-2.7,4.3l.4-.8c-3.4,4.3-6.4,9.3-9.2,13.9-1.4,2.4-2.7,4.6-4,6.8-.6,1.1-1.3,2.1-1.9,3.1-.6,1-1.2,1.9-1.8,2.8,.1,.5-.2,1.3-.6,2.4-.4,1-1,2.2-1.6,3.4-1.2,2.3-2,4.7-1.4,5.3-1.6,2.7-2.2,3.7-2.9,5-.4,.6-.8,1.3-1.3,2.4-.5,1.1-1.1,2.5-1.9,4.6-.8,2.3,0,3.7-.5,6.6l-.9-.2v4.1c-.5,.6-1.1,1.2-1.6,1.8l-.3,2.8c.3-1.1,.9-2.2,1.1-2-.5,4.3-2.5,10.2-3,10.2l-.2,5.1c0,1.7,0,3.4,0,5.1-.4-.3-.3-2-.5-3.3,.5,5.5-1.1,.9-.6,6,.2-.7,.5,.4,.7,.5-.7,2.4-.9,8.2-.4,12.3l-.7-.8c0,7.6,1.4,15.9,2.9,24.3-.3-3,1-2.5,1.5-.1l-.8,1.2c.9,1.5-.1-2.6,1.2,.5,.2,1.6,0,2.1-.2,2.1-.3,0-.8-.7-1.1-1.5,.3,1.2,.7,2.5,1.1,3.7-.2,.3-.6-.6-1-.7,.5,.7,.6,2.4,.8,4.1,.2,1.7,.6,3.6,1.4,4.5l-.2,.3c1.1,4.1,2.1,7,3.1,9.7,.5,1.4,.9,2.7,1.5,4,.5,1.4,1,2.8,1.6,4.4,.8-.2,1.6,2.4,3,4.1,1.6,4.7,3.1,10.2,5.8,15.6,2.2,3.7,1.2,.8,2.4,2.3-.6,.6,2.1,6,.3,3.4,1.7,3.2,2.7,5.3,4,7.5,1.3,2.2,2.7,4.6,5.2,8.5-.2-1-.6-2.1-.1-1.7,.9,1.4,1.5,3.4,1.1,3.4l-.3-.3c5.9,8.4,9.9,21.6,15.6,27.6l-.3-.3,5.2,6.7c2,3.3-1.7-1.7-.6,1,5.9,7,7.5,12.2,12.2,18.1,1.2,6.1,11.1,17.2,13.7,24.6l.2-.7c1.5,1.5,1,2.2,1.6,3.6,.3-.4-.7-2.1,.2-1.2,9.1,14.3,16,31.1,21.8,47.3,2.1,5.9,3.9,2.4,5.4,10.3l-1.7-1.8c2.7,5.8,4.6,12,6.2,18.3,1.6,6.3,2.8,12.5,4.2,18.6-.3-.7-.6-.7-.8-1.9-.2,1.3,.2,3.7,.6,5.8,.4,2.1,.9,3.8,1.2,3.8,.1,1.9-.5,.5-.7,1.7-.1,1.3,.2,2.9,.5,4.4,.3,1.5,.4,2.8,.1,3.5-.1,.2-.3-.7-.3-1.2,.2,.8,.2,2.8,.3,4.4,0,1.6,.1,2.7,.5,1.9-.1,1.2-.1,2.3-.2,3.4,0,1.1,0,2.2,0,3.2,0,2.1-.2,4.1-.6,5.9,.4,1.2,0,3.2-.4,4.9-.3,1.7-.6,3.3,0,3.8-.6-.3-1.3,1.6-1.8,4-.6,2.3-1,5.1-1.2,6.6-.1-1-1.1,2.3-1.4,1-.2,.8-.4,1.6-.6,2.3-.2,.7-.4,1.4-.5,1.9-.2,1.1-.2,1.7,.2,1.6-.5,.6-.8,1.3-1.2,2-.4,.7-.7,1.4-1,2-.6,1.4-.9,2.8-1.4,4.1-.5,1.3-.9,2.5-1.5,3.5-.6,1-1.2,1.8-2.1,2.3-4,9-9.1,16.8-14.7,23.8-.4-.6,1.2-2.4,2.6-4.4,.7-.9,1.4-1.9,1.9-2.6,.4-.7,.6-1.3,.2-1.4-1.2,1.8-2.2,3.4-3.2,4.9-1,1.5-1.9,2.9-2.9,4.3-2,2.7-4.1,5.3-7.2,8.2-1.7,1.4,.5-1.3,.8-2-5.6,6.5-12,11.3-17.4,16.8,0-.1,.5-.7,1-1.3-1.1,1-2.8,2.1-2.3,2.4l1-1.1c2.4-.8-3.4,5.3-3.4,5.7,.9-3-6.3,4.3-4.4,0-.7,.7-1.5,1.7-1.1,1.9-1.2,.8-1.8,.9-.9-.4-2,1.8-2.6,2.5-3.1,3.1-.5,.6-1,1.2-3,2.6-.2-.3,.6-.9,.8-1.5-.8,1-1.7,1.9-2.7,2.9-.5,.5-1.1,1-1.8,1.5-.7,.5-1.5,1-2.4,1.5,.1-.3-.4-.2,.6-.9-2.9,2-5.2,4.1-7.7,6-2.5,1.9-5.1,3.8-8.6,5.6,1.3-2.3-2.5,1-3.4,.2l-3.5,2.4,1.7-.4c-3.2,1.9-5.7,4.1-8.6,5.2l2.2-1.7-6,3.4,3.6-1.5c-3,2.3,1,1.1-3.5,3.1,.8-.5-3.3,1.6-5.3,1.9h0c-.7,.6-1.5,1.1-2.4,1.7-.4,.3-.9,.5-1.5,.8-.5,.2-1.1,.5-1.8,.7-.8,0,0-1.4-.5-1.4-.6,.8-2.6,1.7-4.6,2.7-1,.5-2,1-2.9,1.5-.9,.5-1.6,.9-2.1,1.4,.6-.5,.4-1.1,.1-1.1l-1.1,1.3c-1.7,.4-2,.4-1.9-.1-4.8,1.8,2,.7-3.8,2.4,.4-.2,.2-.3,1.1-.7-.7,.2-1.4,.5-2.1,.8-.7,.3-1.4,.5-2.1,.8-1.4,.5-2.7,1.1-4.1,1.6-1.3,.5-2.7,1.1-4,1.6-1.4,.4-2.7,.8-4.1,1.2-1.9-.6,4.6-1.7,2.5-2.1-1.9,.7-3.8,1.4-5.8,2.1-1,.4-1.9,.8-2.9,1.1l-3,1c-2,.7-3.9,1.3-5.9,1.9-2,.6-3.9,1-5.8,1.4l1.5-.2c-.3,.9-1.8,1-3.7,1.1-.9,0-1.9,.1-2.9,.2-1,0-2,.3-3,.6,.9-.3,1.1-1.1,.9-.9-2.7,.4-5.3,1-8.3,1.7-3,.6-6.4,1.4-10.4,2.2,.3-.2,.6-.3,1-.5-3.2,0-8.3,.7-11.7,.7-1,.5-2.9,.5-1.7,1-2.7-.4-5.2-.5-7.8-.4-2.5,0-5,.2-7.4,.4-1.2,0-2.4,.2-3.6,.3-1.2,0-2.4,0-3.6,0-2.4,0-4.7-.3-7-.9,1.1,0,2.7-.2,1.8-.3-2.6,0-5.3-.2-7.9-.2,.6,.7,1,.5,2.6,1.2-1,.3-3.3,.5-5.3,.3,3.6-.2,0-1.1-1.4-1.6,.2,.2-.3,.4-.2,.6-4-1.8-.9,1.3-6.4-.3l.3-.3c-2.1,0-4.2,.2-6.4-.4-.8-1,2.3,0,2.5-.6-3.2-.5-6.5,.4-9.3-.9,1.4,0,3.3,.4,4.7,.4-3-1.5-3.4-1.3-5.6-1.9h.2l-5.2-1.5,1.3,.6c-2.2,.6-4.2,.2-6.4-.3-2.2-.6-4.4-1.3-7.3-1.4,5.5,.2,1-.5,1.7-1.3-1.3-.6-3.2-1.4-2.6-1.5-.7,0-1.2,0-1.8-.3-.5-.2-1.1-.4-1.6-.7-1.1-.5-2.3-.9-4.2-1,0-.3-2.6-.9-1.8-1.4-3.2-.8,.6,.7,.2,1-2.6-.3-5.3-1.7-8.3-3.1-1.5-.7-3.1-1.4-4.7-2.1-1.6-.7-3.3-1.3-5.1-1.8-1.5-.5-2.7-.9-3.8-1.2-1.1-.3-2-.6-2.9-.8-1.8-.5-3.6-1-6.3-2.1-1.6-1.3,2-.2,2-.2-.7-.5-1.3-.9-1.9-1.2-.6-.4-1.2-.8-1.8-1.1-1.2-.7-2.4-1.3-3.9-1.9,.7,0,.2-.4-.4-1.2-1.1-.6-1.6-.5-2.1-.6-.5,0-1.1-.2-2.4-1.3,.6,0,1.5,0,2.7,.3-2.6-1.2-5.2-2.4-7.9-3.7-.4-.8,1.9,.3,3,.6-1.5-.8-3.3-1.9-5-2.7-1.6-.9-3.1-1.7-3.7-1.6l1.6,1.5c-1-.7-.1-.9,.7-.5,.7,.3,1.2,.6,1.6,.9,.4,.3,.8,.6,1,.8,.5,.5,.6,1,.6,1.1l-1.9-1c.4,1.3,2.3,2.4,4.4,3.5,1.1,.5,2.2,1.1,3.4,1.6,1.1,.6,2.2,1,3.1,1.6l-2.2,.2,4.3,1.3c.6,.7,.9,1.7-1.1,.8,2.4,2.1,2.6,1,4.6,2.9,.2,.2,0,.2-.2,.1,.9,.4,1.9,.7,2.9,1-.6,0,0,1-1.5,0,2.3,1.5,4.3,2.3,6,2.9,1.7,.6,2.9,1,3.7,1.9h-.4c7,2.5,1.1-.6,6.6,.6,.9,1.2,1.7,2.4,2.6,3.6l1-.6c.7,.3,2.1,.9,1.7,1.2,2.9,.4-.3-.5,1.5-.5,1.6,1,4,1.9,6.1,2.6,2.1,.7,3.8,1.3,4,2.1,1.5-.2-3.2-1.6,.7-.8,.6,1.8,4.4,1.3,7.5,2.8-1.2,.5-4.2-.8-1.1,.8,2.4-.8,6.3,2.1,9.2,2.5,.2-.5,1.7-.3,3.8,.2,1,.2,2.2,.5,3.5,.8,1.2,.3,2.5,.5,3.7,.6-.2,.2,2,.7,4.8,1.4,1.4,.3,2.9,.7,4.4,1,1.5,.3,2.9,.6,4,.8l-.2,.2c.5-.5,1.9-.5,3.6-.4,.8,0,1.8,.1,2.7,.2,.9,0,1.8,0,2.7,.1-.2,.6-.8,.9-2.7,1l3.2,.3c.8-.3,1.8-.4,3.8-.3l-.9,.8c4.2,.4,8.6-.5,14,.3,.3-.8-4.2-2.3,1.5-2.6,.2,.4,.4,1.1-1.1,1.3,.5,0,1.8-.3,2.7-.2l-2.3,.7c2.5,.3,1.3-.6,3.3-.5,0,.6,1.5,.4,1.2,.9-.5,0-1.7-.2-2.5,0,2.2,0,4.9,.4,5.8,.9-.2-.3,0-.8,1.6-.9,4.2-.2,1.5,.7,3.9,.9,1-.5,3.7-.2,3.8-1.1,1.2,0,1.5,.3,2,.6,.5-.1,1.5-.2,2.5-.3,1-.1,2.1-.3,3.1-.4,2-.3,3.3-.6,2.1-.9h-.2c1.8-.5,3.6-.7,5.4-.9,1.8-.3,3.7-.4,5.5-.6,1.8-.2,3.7-.3,5.5-.5,1.8-.3,3.6-.6,5.3-1v.3c4.2-1,9.2-2.1,12-3.4,1.2-.3,3-.1,2.6,.3,3.1-1.1,3.3-1.5,8-2.2-3,1.4,1.2,.1-3.1,1.2,4.1-.9,5.2-.6,9.3-2.8-1.3,1.2,3.3,0,5.2-.9l-3,.4c2.1-.8,4-1.3,5.9-1.9l-.7,1.3c2.1-.4,4.1-1.1,5.9-1.9,1.8-.8,3.5-1.6,5.1-2.5,1.6-.9,3.2-1.7,4.8-2.3,1.6-.6,3.2-1.1,4.9-1.3,.9-.8-.2-.4-1.4,0-1.2,.4-2.4,.6-1.6,0,3.7-1.4,8-1.8,9.2-2.3,2.6-.8,3.6-1.8,4.6-2.7,1-.9,2-1.9,4.7-2.9-.8,0-1.8-.5,1.8-2.7,3.5-1.7,5-1,2.9,.5-.8,.5-1.3,.6-1.3,.5-1.1,.7-2.5,1.6-.9,1.3l.3-.6c1.9-.6,6.7-3.2,5.9-2.1,2.5-1.7,.9-1.1-1.2-.2,4.8-1.9,7-3.9,11.7-6.2-.8,.3-1.7,.3-1-.1,1.7-.9,2.7-1.5,3.4-1.9,.6-.4,.9-.7,1-1,.3-.5,.4-.9,2.5-2.3,2.8-1.1-.2,1.7,4-1.5,2.9-1.5,1.1,.4,.2,1.4,3.6-3.2,7.7-4.6,10.1-6.1l-1.9,1.7c1.2-1,2.2-1.7,3.2-2.4l-1.6,.3c1.3-.8,2.3-1.5,2.4-1.2,1-1.3-1.6-.3,.4-2.6,1.8-.9,4.6-3.8,5.7-3.5-5.2,3.4,1.1,.4-3,3.6,.8-.7,1.8-1.4,3-2.2,.2,0,0,.3-.3,.6,5.3-3,1.5-2.5,6.4-6.3-.3,.9,1.8,0,2.5-.8-2,1.5-1.5,0,0-1.7,3.3-2.2,3.1-3,4.7-4.3l-1.9,1.4c.3-.9,1.8-2.1,3.8-4.1,.5,.2-1.7,1.8-.8,1.3,.9-1.3,2.3-2.3,3.9-3.3,1.6-1.1,3.3-2.2,4.6-3.9,1.7-1.1,.8,.6,2.3-.4,1.5-1.9,2.5-2.7,3.6-3.5,1.1-.8,2.2-1.6,3.7-3.7-1.5,.6-1.6,.9,.4-2.2-1.8,2.1-3.5,4.3-5.4,6.3,1-1.5,2-3,3-4.5-1.7,1.8-3.4,4.1-4.5,5.1,1.4-2.2,1.3-1.9,0-1.5,1.6-.8,2.7-2.1,3.7-3.5,1.1-1.4,2.1-2.9,3.7-4.1l1.2,1.3c2.3-1.9,3.9-4.2,5.5-6.6,1.6-2.4,3.3-5.1,5.7-8.1-.5,.6-1.1,1.2-1.7,1.8,0-1.2,2.7-4,3.8-6.2,.4,.5,1.4-.7,2.3-1.4-.4,0,3-4.9,2.3-6.1l2.3-2.7c3.1-5.5,1.6-7.2,4-12.7,0,1,.3,.8,.5,1,.2,.1,.3,.5-.3,2.5,.8-1.9,1.5-3.6,1.1-3.7,.4-.5,.7-1.9,1-3.3,.3-1.5,.6-3,1.1-3.8,0-.9-.5-1.3,.1-3.5,.2-.2,.3,0,.3,0-.3,0,.5-3.5-.6-1.8,.8-1.4,1.5-3.1,1.9-5.1,.2-1,.5-2,.7-3,.2-1,.3-2.1,.4-3.1,.1-1,.3-2.1,.4-3.1,0-1,.2-2,.3-2.9,.1-.9,.3-1.8,.4-2.6,.1-.8,.3-1.6,.6-2.2,.1-4.4-.1-9.7-.3-13.6,.2,.2,.3,0,.3,.8,.1-1.4,0-2.3-.2-2.9-.2-.7-.4-1.1-.6-1.5-.5-.9-.9-1.9-.9-5,.6-3.2,.9,3.2,1,1.2,.9-.5,.7-2.4,.3-4.7-.5-2.3-1.1-4.9-.9-7.1l.3,1c0-1.6-.5-3.5-1.1-5.7-.7-2.1-1.5-4.5-2-7,0,0,.2,.2,.3,0-1.8-3.3-3.8-9.7-5.6-14.4,1.2,1.3,1,2.1,1.5,.9-.8-2.1-1,1-2.5-3.2,0-1.5-.7-4.7,0-5.4,.5,1.3,.9,2.7,1.4,4,.2-1.2-.3-2.5-.8-3.8-.6-1.3-1.3-2.5-1.5-3.6h.5c-2.4-5.9-3.5-5.6-6.1-12.1v.8c-2.6-3-.7-3.2-3-6.3l.6-1.5c-1.3-2.2-4.7-7.5-6.9-11.4,1,.9,2.1,2.5,3.2,4.3,1.1,1.7,2.3,3.5,3.2,4.9-1-2.3-3.7-7.6-4.8-8.5,.6,.8,1.4,1.9,1.6,2.8-1.1-1.2-2.2-2.6-3.3-4.3-1.1-1.7-2.2-3.6-3.3-5.8,1.2-.1-.1-3.1-1.9-6.4-1.7-3.4-3.8-7.2-4-9.2-5.1-7.2-8.6-15.1-14.1-23.7,.4,4-1.6-2.5-2.8-1-1.4-1.9-1.8-2.7-1.8-3l-2.9-6.6c-.5-1.7,1.5,1.7,1.8,1.3-2.7-4.4-.5-2.2-1.9-5.4-.2,.9-1.8-1-3.1-3.6l1.5,4c-4.7-5.6-2-6.1-6.7-11.7l1.7,1.6c-2.3-3-7.3-11.7-10.4-14-.2-.7-.2-1.7,.8-.3-4.4-7.7-11.4-16.2-13.9-22.8l.7,.4c-.9-1.4-2.1-2.1-2.7-4.2,.2,0,.7,.4,.4-.3-.5-.7-2.8-3.5-3.5-5.6l1.3,1.4c-3.4-7.9-6.9-11.3-10.1-17.9,1.2-.5-1-6.9-2-10.1h.2c-.4-1.1-.8-2.2-1.3-3.3-.4-1.1-.8-2.1-1.2-3.2-.8-2-1.6-4-2.4-5.9-.8-1.9-1.5-3.8-2.3-5.8-.7-2-1.4-4-2.1-6.3,0-1.5-.2-3.4-.5-5.6-.3-2.2-.8-4.7-1.1-7.3-.8-5.2-1.3-10.9-1.2-15.5-.2,1.4-1-.2-1.2-1.8,.1-2.2-1-6,.2-5.6v.8c.6-.8,.8-2.3,.9-4,.1-1.7,.1-3.7,.2-5.4l-1.5-.7c1.5-4.4,1.9-10.3,2.6-15.7,.8-5.3,1.7-10.2,3.3-12.3,.2-2.2,.9-4.8,1.3-7l.8,.4c2.1-5.7,3.2-8.4,6-15.4v1.6c.8-1.9,.8-3.4,.8-4.8,0-1.4,0-2.8,.8-4.6l1.6-.5c3.3-6.6,8.1-12.4,11.2-19.1,0,.2,.3,.6-.3,1.6,.9-1.5,3.1-4,4.6-6.3,1.7-2.2,2.8-4.1,1.7-4.1,.9,.6,4.8-5.9,7.1-9.2l.2,1c.7-1.6,1-2.5,1.5-3.4,.5-.9,1.2-1.9,2.7-3.8,.9-.7,1.2-.2,0,.7,2.9-2.4,1.4-2.7,5-5.6l-.8,1.6c2.8-2.6,2.4-2.6,3.5-4.6,1.5-1.9,5.5-4.8,6.5-4.6,0-.7,1.3-2.6,3.2-3.8,.4,0-.1,.7-.4,1,2.7-1.8,4.3-3.5,5.9-5,1.6-1.5,3-2.8,5-3.7,.2,.2,.6,.1,.9,0-1,.7-2,1.4-2.9,2.1-.9,.7-1.7,1.2-2.3,1.7-1.3,1-2,1.5-1.9,1.4,.5,.6,3.8-1.8,1.9,1,2.2-2.5,6-6.9,9.6-8.8,.2,0,.4,0,.6,0l-.3,.3c.8-.5,1.5-1,2-1.5,1.1-.6,1.9-.9,2.9-1.6,.4,.1,1.4-.4,2.6-1.1,1.2-.7,2.5-1.5,3.4-2-.6-.6,1.8-1.9-.7-1.2,.3-.1-.3,.3-1.4,1-.3,.2-.6,.4-.7,.5,0,0,0,0,0-.1-1.2,.7-2.6,1.7-4.3,2.7,1.1-1.2,2.4-2.5,4.6-3.2,.6-1,1.4-2.1,1.8-2.6,3.1-.4,8.2-2.3,9.1-2,2.6-1.8,6-3.3,8.9-4.9,1.5-.8,2.9-1.7,4.1-2.4,1.3-.7,2.3-1.5,3.1-2.2,1.6-.9,2.1-.4,2.8-.4-.9,.5-2,1-2.5,1.4,1.6-.9,4-1.9,6.1-2.9,2.1-.9,3.9-1.7,4.1-2.4,4.4-1-2.1,1.8,3.7-.4l-.7,.6c1.5-.3,2.9-.7,4.2-1.1,1.3-.4,2.6-.8,3.9-1.2,2.5-.9,4.8-1.9,7.2-3,4.8-1.8,9.8-3.8,16.7-4-.9,0-1.4,0-1.6,0,1.9-.3,3.8-.6,5.8-.9,1.9-.4,3.9-.6,5.8-.9,1.9-.3,3.9-.7,5.8-1,2-.3,3.9-.6,5.9-.8,2-.3,3.9-.5,5.9-.8,2-.2,3.9-.3,5.9-.5,2-.1,3.9-.2,5.8-.3,1.9,0,3.9,0,5.8,.2,4.3,.2,4.8-.6,7.4-1.2l1,.9,4.5-1.1c1.6-.2,3.1-.2,4.6,0,1.5,.2,2.9,.5,4.4,.8,1.5,.3,3,.5,4.7,.7,.8,0,1.7,0,2.6,0,.9,0,1.9,0,2.9-.2l-1-.7c2.9,.3,9.3,.2,8.7,.9,.3,0,1-.6,2.1-.2v.5h7.3c2.8,.3,2.5,.7,2.5,1.2,0,.4,.4,.9,4.4,1.4,3,.2,8.7-.3,7.6-.8-1.2-.2-3-.7-3.1-1.2h2.8c.7-1.2,3-2.4-3.6-4.2l-4.8,.2-1.4-.9,4,.5c-2.2-.9-3.7-.6-5.3-.3-.3-.4-1-.7-1.9-.9l-4.8,.9c-.5-.6,2.2-.9-.9-1.5-2.2,.4,2,1.4-1.7,1.5-2.2-.9-1.5-1.3-4.2-.9-.4-.4,.2-.6,1.3-.7-2.4,.3-6.3-.2-7.6,.5-2.3-1-8.1-.1-7.8-1.4-.8,.3-4.2,.9-6.4,.9,2-.7,0-.9-2.5-.9-2.4,0-5.2,0-4.7-.9-.7,.4-1.8,.6-3,.7-.6,0-1.3,.1-2,.2-.7,0-1.4,.1-2.2,.2-3,.2-6.2,.3-8.8,.8,.3-.1,.9-.4,1.3-.3-3,0-3.8-.3-5.8-.4-.3,1.2-4.9,1.8-7.3,2.7-1.9-.4-1.3-.8-.5-1.2,.8-.4,2-.8,1.4-1.3,.3,.9-6.2,1.6-4.9,2.3-2.8-.4-2.4,0-4-.9-.3,1.5-2.5,.5-4.7,1.7-4.1,0-1.2-1.2-5.5,0-2.2-.1,1.7-1.2,1.7-1.2Zm-97,39.1h0c.7-.5,1.4-1,1.8-1.3-.4,.3-.9,.6-1.8,1.3Zm-7.2,5.2c.9-.6,2-1.4,3.1-2.2,.4,0,.3,.5-.4,1,.3-.4-1.5,.6-2.7,1.2Zm18.5-5.5c-1.1,.8-1.6,.9-1.8,.9,.5-.4,1.1-.8,2-1.3,0,0,0-.1,0-.2,0,.2,0,.4-.2,.6Z"/>
            <path class="uuid-19328dc0-a2d7-4d2a-ae84-3f5491a816a6" d="M342.8,39.7c.2-.1,.2-.2,.5-.3-.3,0-.5,.2-.8,.2,0,.2-.2,.3-.3,.5,.2-.1,.4-.3,.6-.4Z"/>
            <path class="uuid-19328dc0-a2d7-4d2a-ae84-3f5491a816a6" d="M163.2,650.5h.2c-.2,0-.3,0-.4,0,.1,0,.1,0,.2,0Z"/>
            <path class="uuid-19328dc0-a2d7-4d2a-ae84-3f5491a816a6" d="M253,145.6h.2c0-.2,0-.5,0-.8,0,.3-.2,.5-.2,.8Z"/>
            <path class="uuid-19328dc0-a2d7-4d2a-ae84-3f5491a816a6" d="M115.2,647.5c0,0-.3-.2-.6-.3,0,0,.3,.2,.6,.3Z"/>
            <path class="uuid-19328dc0-a2d7-4d2a-ae84-3f5491a816a6" d="M94.9,644.1l-2.8-.9c1.2,.4,2.1,.7,2.8,.9Z"/>
            <path class="uuid-19328dc0-a2d7-4d2a-ae84-3f5491a816a6" d="M79.6,640c-.2,0-.3,.2-.4,.3h0l.4-.3Z"/>
            <path class="uuid-19328dc0-a2d7-4d2a-ae84-3f5491a816a6" d="M313.6,579.9c.2-.1,.3-.3,.4-.4,1-1,.3-.4-.4,.4Z"/>
            <path class="uuid-19328dc0-a2d7-4d2a-ae84-3f5491a816a6" d="M251.9,622.3c.7-.5,1.3-1,2-1.4-1.2,.5-2.2,1-2,1.4Z"/>
            <path class="uuid-19328dc0-a2d7-4d2a-ae84-3f5491a816a6" d="M360.5,513.9s0,0,0,0c0-.2,0-.3,.1-.5l-.2,.5Z"/>
            <path class="uuid-19328dc0-a2d7-4d2a-ae84-3f5491a816a6" d="M257,619.4c-1.3,.4-2.3,1-3.1,1.5,1-.4,2.2-.9,3.1-1.5Z"/>
            <path class="uuid-19328dc0-a2d7-4d2a-ae84-3f5491a816a6" d="M18,611l-.6-.5c0,0,0,0-.2,0l.7,.4Z"/>
            <path class="uuid-19328dc0-a2d7-4d2a-ae84-3f5491a816a6" d="M17.3,610.6l-.7-.4c.3,.2,.6,.4,.7,.4Z"/>
            <path class="uuid-19328dc0-a2d7-4d2a-ae84-3f5491a816a6" d="M14.9,609.4l1.6,.9c-.5-.4-1.1-.8-1.6-.9Z"/>
            <path class="uuid-19328dc0-a2d7-4d2a-ae84-3f5491a816a6" d="M35.6,622.3l.4-.2c-.1,0-.3,0-.4,.2Z"/>
            <path class="uuid-19328dc0-a2d7-4d2a-ae84-3f5491a816a6" d="M41.3,625.1c-1.3-.8-3.1-2.3-5-3.1h-.3c1,.2,3.8,2.9,5.3,3.1Z"/>
            <path class="uuid-19328dc0-a2d7-4d2a-ae84-3f5491a816a6" d="M64.4,639.1c-1.7-.7-3.3-1.4-5-2.1,.8,.6,1.8,1.5-.6,.7,6.1,3.3-1.1-1.2,5.5,1.5Z"/>
            <path class="uuid-19328dc0-a2d7-4d2a-ae84-3f5491a816a6" d="M80.3,644.5c-2.9-.6,0,.5-.3,.6,1.9,.2,2.3,.3,.3-.6Z"/>
            <path class="uuid-19328dc0-a2d7-4d2a-ae84-3f5491a816a6" d="M200.6,644.6v.8c2.1-.7-.1-.3,0-.8Z"/>
            <polygon class="uuid-19328dc0-a2d7-4d2a-ae84-3f5491a816a6" points="221.5 634.1 219.3 634.4 218.6 635.4 221.5 634.1"/>
            <polygon class="uuid-19328dc0-a2d7-4d2a-ae84-3f5491a816a6" points="236.2 634.4 235.3 634.9 238.7 633.2 236.2 634.4"/>
            <path class="uuid-19328dc0-a2d7-4d2a-ae84-3f5491a816a6" d="M372.2,492.4l-1,.6c0,1.5,1,2,1-.6Z"/>
            <path class="uuid-19328dc0-a2d7-4d2a-ae84-3f5491a816a6" d="M355.3,406.1c0-1.1-.6-3.5-1.7-4.7,.7,1.9,1.2,3.8,1.7,4.7Z"/>
            <path class="uuid-19328dc0-a2d7-4d2a-ae84-3f5491a816a6" d="M256.4,169.7l.2,1.7c0-1.1,0-2.2,0-3.2,0,.5-.2,1-.2,1.5Z"/>
          </g>
          <g>
            <path class="uuid-19328dc0-a2d7-4d2a-ae84-3f5491a816a6" d="M452.1,650.5c-.5,.6,.1,.9,1.9-.2l.8-1.6-2.7,1.8Z"/>
            <path class="uuid-19328dc0-a2d7-4d2a-ae84-3f5491a816a6" d="M465.2,645.3c1.9-1.6,4-3.7,2.1-3.7-1.6,2-2.4,2-4.1,4.2-1.8,1.1-3.3,1.5-3.2,1-.5,.6-2.9,1.4-3.6,2.5,2.7-.6,5.8-2.3,8.6-4.6,.8-.2,.3,.4,.2,.7Z"/>
            <path class="uuid-19328dc0-a2d7-4d2a-ae84-3f5491a816a6" d="M626,519.9c-.3,.3-.6,.6-1,.9,.3-.2,.6-.5,1-.9Z"/>
            <path class="uuid-19328dc0-a2d7-4d2a-ae84-3f5491a816a6" d="M703,419.1c-.5,.8-.6,1.2-.6,1.3,.4-.8,.8-1.5,.6-1.3Z"/>
            <path class="uuid-19328dc0-a2d7-4d2a-ae84-3f5491a816a6" d="M715.1,400.9c-.3,.4-.5,.7-.7,1.1,.3-.4,.6-.8,.7-1.1Z"/>
            <path class="uuid-19328dc0-a2d7-4d2a-ae84-3f5491a816a6" d="M626,519.9l2.5-2.3c0-.4-1.3,1.1-2.5,2.3Z"/>
            <path class="uuid-19328dc0-a2d7-4d2a-ae84-3f5491a816a6" d="M488.3,628.9c-.6,.4-1,.8-1.4,1.2,.5-.3,.9-.6,1.4-1,0,0,0-.1,0-.2Z"/>
            <path class="uuid-19328dc0-a2d7-4d2a-ae84-3f5491a816a6" d="M586.9,559.9l-.8,.7c-.1,.3-.3,.6-.4,.9l1.1-1.6Z"/>
            <path class="uuid-19328dc0-a2d7-4d2a-ae84-3f5491a816a6" d="M554.3,588c.8-.6,.5-1.4,.6-2-.2,.6-.7,1.2-1.3,1.8,0,.1,.3,.2,.7,.2Z"/>
            <path class="uuid-19328dc0-a2d7-4d2a-ae84-3f5491a816a6" d="M498.2,626.6l-1,.8c.2-.2,.7-.5,1-.8Z"/>
            <path class="uuid-19328dc0-a2d7-4d2a-ae84-3f5491a816a6" d="M609.3,538.8c.1,0,.3,0,.5,0,0,0-.3,0-.5,0Z"/>
            <path class="uuid-19328dc0-a2d7-4d2a-ae84-3f5491a816a6" d="M389.3,618.2c0,0,0,0-.1,0,0,.3,.1,.3,.1,0Z"/>
            <path class="uuid-19328dc0-a2d7-4d2a-ae84-3f5491a816a6" d="M381.4,667.4v-.7c-.2,0-.3-.2-.5-.2l.5,.9Z"/>
            <path class="uuid-19328dc0-a2d7-4d2a-ae84-3f5491a816a6" d="M734.3,366c0,0,0,0,0,.2-.4,1-.1,.4,0-.2Z"/>
            <path class="uuid-19328dc0-a2d7-4d2a-ae84-3f5491a816a6" d="M636.6,73.9c2.2-.1,.5,.5-.8,1.1-.7,.3-1.3,.6-1.3,.7,0,.2,.5,.2,2.1,0-.7-.2,5.3-2.6,0-1.9Z"/>
            <path class="uuid-19328dc0-a2d7-4d2a-ae84-3f5491a816a6" d="M489.3,628.4c.5-.3,1-.6,1.5-1-.7,.4-1.1,.7-1.5,1Z"/>
            <path class="uuid-19328dc0-a2d7-4d2a-ae84-3f5491a816a6" d="M636.6,75.8h.7c-.3,0-.4,0-.7,0Z"/>
            <path class="uuid-19328dc0-a2d7-4d2a-ae84-3f5491a816a6" d="M761.8,278.2c-.2,.2-.3,.5-.5,.9,0,0,.2-.2,.5-.9Z"/>
            <path class="uuid-19328dc0-a2d7-4d2a-ae84-3f5491a816a6" d="M741.9,343.7l.7-1.5c-.3,.6-.5,1.1-.7,1.5Z"/>
            <path class="uuid-19328dc0-a2d7-4d2a-ae84-3f5491a816a6" d="M764.2,242.6c0-.9,.3-1.2,.2-2.5,0,.1,0,.2-.1,.4,.1,.5,.1,1.1,0,2.1Z"/>
            <path class="uuid-19328dc0-a2d7-4d2a-ae84-3f5491a816a6" d="M762.4,205.5c0,.2,0,.5,0,.7,0,.4,.1,.8,.2,1.2v-1.9Z"/>
            <path class="uuid-19328dc0-a2d7-4d2a-ae84-3f5491a816a6" d="M402.5,507.7c-.4,.8-.7,1.2-1,1.6,.7-.5,0,4.9,1-1.6Z"/>
            <path class="uuid-19328dc0-a2d7-4d2a-ae84-3f5491a816a6" d="M488.5,629.3c0-.3,.3-.5,.7-.9-.4,.2-.7,.5-1,.7,0,.2,0,.3,.3,.2Z"/>
            <path class="uuid-19328dc0-a2d7-4d2a-ae84-3f5491a816a6" d="M757.6,240.9c0-1.9,0-3.8,.1-5.7,0,1.6-.1,3.7-.1,5.7Z"/>
            <path class="uuid-19328dc0-a2d7-4d2a-ae84-3f5491a816a6" d="M478.3,257.4l-.5,1.2c.2-.5,.4-.9,.5-1.2Z"/>
            <path class="uuid-19328dc0-a2d7-4d2a-ae84-3f5491a816a6" d="M757,218.2c.2-1,.3-2.1,.3-3.3,0-.2-.2-.5-.3-.6v3.9Z"/>
            <path class="uuid-19328dc0-a2d7-4d2a-ae84-3f5491a816a6" d="M401.5,509.2s0,0,0,0c0,0,0,0,0,0Z"/>
            <path class="uuid-19328dc0-a2d7-4d2a-ae84-3f5491a816a6" d="M397.9,547.4c.7-5.5-.7-2.7-1.2-4,.6-6.6,1.2-2.9,2.1-5.1,.3-4.1-.3-7.4,.2-10.5,.2-.2,.4-.8,.5,0-.3-4.5,1.9-12.8,1.6-18,.2-.4,.3-.5,.4-.6-.7,.7-1.3,.8-1.6,.5,.4-2.5,0-4.7,.9-5.5-.3,1.5,0,1.7,.1,2.4,0-.9,0-1.8,.1-2.6,1.4-2.1-.2,3.6,.5,3.7,.5-5.1,.7-11.1,1.6-14.9,1.1-.6-1.2,9,.6,4.1l-1.4,5.9c2.4-4.3-.7,3.6,1.7-.3,1.6-7.8,1-8.8,2.6-16.6-.2-1.9-.9,.4-1.2-1.4,1.1-11.2,4.1-8.2,4.4-16.6-.2-2.2-1.3-3.3,.5-8.9l.7,2.2c1.7-7.5-.8-4.6,1.7-12.3,0,.7-.2,2.2-.4,3.4-.2,1.2-.3,2-.2,1.5,2-4.9,.1-3.7,1-7.6l1.2-.6c.8-4,1.5-8.2,2.3-12.6,.8-4.3,1.6-8.8,2.6-13.2,.2,.6,.1,2.1,.9,.2,1.1-5.6,2.7-11.5,4.4-17.3,1.7-5.8,3.7-11.5,5.4-16.7,.1-1.4,.2-2.9,.3-4.3,.3-.9,.9-1.6,.8-.6,1.6-4-.5-.4-.2-2.4,.6-2.4,1.4-2.9,1.2-1.4,.8-3.7,1.9-9,3.3-14.3,1.5-5.2,3.2-10.5,4.9-14.1l-.2,1.6c2.3-5.8,.6-7.2,3.2-12.4l-.2,1.1c1.2-3.1,2.3-6.4,3.5-9.6,1.2-3.2,2.4-6.5,3.6-9.6,2.3-6.3,4.9-12,7.4-16.6-.2-1.1,1.1-4.2,2.5-7.1,1.3-2.9,2.6-5.7,1.9-6.5,3.9-6.7,3.2-4.6,8.3-14.2,1.3-2.6,.8-4.4,2.1-7.7l.9,.3c.4-1.6,.8-3.2,1.2-4.8l2.1-1.8,1.3-3.1c-.6,1.2-1.6,2.4-1.8,2.1,2-4.9,6.2-11.2,6.8-11l5.1-11.3c.2,.4-.7,2.3-1.2,3.9,2.3-6.3,1.4-.6,3.5-6.3-.6,.6-.3-.7-.4-.9,2-2.4,5.4-8.3,7.7-12.8v1.2c.6-1,1.2-2,1.8-3,.6-1,1.2-2,1.8-3.1,1.2-2.1,2.5-4.2,3.7-6.3,1.3-2.1,2.5-4.3,3.8-6.5,1.4-2.1,2.7-4.3,4.1-6.5-2.3,2.9-2.7,1.6-1.2-1l1.5-.5c.6-2-2,2.4-.5-1.3,2.2-3.2,2.3-1.6,1.4,.5l2.3-4.1c.4,0,0,.9,0,1.4,.5-2,5.3-6.1,6.1-9h.4c1.5-2.2,2.7-4,3.9-5.6,.6-.8,1.1-1.6,1.6-2.4,.5-.8,1-1.5,1.6-2.2,2-2.9,3.9-5.5,6.4-8.9-.3-.3,0-1.1,.7-2.1,.6-1,1.3-2.2,1.9-3.4,2-2.3,4.2-4.7,6.5-7.3,1.1-1.3,2.3-2.6,3.4-3.9,1.2-1.4,2.4-2.7,3.6-4.1,3.1-4.2,.4-1.6,1.6-3.7,.8,.2,5.6-5.5,3.5-2.2,1.4-1.7,2.6-3.1,3.7-4.4,1.1-1.2,2-2.4,3.1-3.6,2.1-2.4,4.3-5,8-9.1-1.1,.6-2.1,1.5-1.8,.8,1.3-1.5,3.5-3,3.6-2.6l-.3,.4c4.1-4.8,9.9-9.3,15.6-13.2,5.7-3.9,11.3-7.3,15-10.6l-.4,.4c1.4-1,2.7-2.1,4.1-3.1,1.4-1,2.8-2,4.3-2.9,4.2-2.2-2.2,1.9,1.1,.6,4.5-3.2,8.6-4.9,12.4-6.4,3.8-1.4,7.5-2.5,11.8-4,3.6,.2,9.6-1,15.9-1.4,.8,0,1.6-.1,2.4-.1,.8,0,1.6,0,2.4,0,1.6,0,3.2,.1,4.7,.2,1.5,.1,2.9,.4,4.3,.6,1.3,.3,2.6,.7,3.6,1.1l-.4-.6c2.4,0,2.7,1,4.4,1.5-.1-.5-2.4-1.1-.9-1,9.9,2.3,19.4,7.5,27.5,14.4,8.1,6.9,15.1,15.3,21.1,24,1.1,1.6,1.9,2.5,2.7,3.2,.7,.7,1.3,1,1.9,1.4,1.2,.9,2.5,2,4.5,6.5-.7-.7-1.6-1.2-2.3-1.9,1.2,1.6,2.3,3.2,3.3,4.9,1,1.7,2.1,3.4,3.1,5.1,.9,1.8,1.8,3.6,2.7,5.4l1.3,2.7,1.2,2.8c.8,1.9,1.6,3.7,2.4,5.5,.8,1.9,1.4,3.7,2.1,5.6,1.5,3.7,2.7,7.4,4.2,11.1-.5-.8-.8-.8-1.2-2.2,.4,3.3,3.2,11.7,3.9,11.6,.6,2.4-.4,.7-.3,2.2,.3,3.3,2.7,7.9,2.3,9.7,0,.3-.4-.9-.6-1.4,.8,2,1.6,9.9,2.1,7.7,.3,2.9,.7,5.7,1.1,8.3,.2,1.3,.4,2.6,.5,3.8,.1,1.2,.2,2.5,.1,3.6,.6,1.5,.7,4,.8,6.2,0,2.2,0,4.2,.8,4.7-.7-.2-.8,2.4-.8,5.5,0,3.1,.2,6.7,.5,8.5-.2-.6-.3,.2-.5,1-.2,.8-.3,1.5-.6,.8-.2,4.2,0,8.1,.7,7.4-.5,1.9-.8,3.9-.9,5.7-.1,1.9-.1,3.7-.2,5.5-.1,3.5-.3,6.6-1.6,8.6-1,12.5-3,24.1-5.6,35.1-.6-.4,.2-3.4,.9-6.3,.6-3,1.2-5.8,.5-5.7-.5,2.6-.8,5-1.2,7.3-.4,2.2-.8,4.3-1.1,6.4-.4,2.1-.9,4.1-1.4,6.3-.6,2.2-1.2,4.5-2.1,7-1,2.6,0-1.7,0-2.6-2.7,10.4-6.8,19.6-9.7,28.8-.1,0,.2-1.1,.4-2-.6,1.8-1.9,4-1.2,4l.6-1.8c2-2.5-1.2,7.6-.9,8.2-.3-3.6-4.2,8.5-4.2,2.9-.4,1.2-.8,2.7-.3,2.6-.9,1.6-1.3,2.1-1,.2-1.2,3.2-1.5,4.2-1.7,5.2-.2,1-.5,1.9-1.8,4.7-.3-.1,.2-1.3,.1-2-.4,1.5-.8,3.1-1.4,4.8-.6,1.7-1.5,3.6-2.8,5.9,0-.4-.5,0,.2-1.3-3.9,8-5.6,14.2-10.9,22.5,.3-3.1-2,2.7-3.3,2.6-.8,1.6-1.5,3.2-2.3,4.7,.5-.5,1-1,1.5-1.6-1.2,2-2.1,3.9-3,5.8-.9,1.9-1.8,3.7-3.1,5.3,.5-1,1-2.1,1.4-3.2-1.4,2.5-2.9,5-4.4,7.4l3-3.9c-2,4.3,1.5,.3-2.1,5.4,.6-1.1-2.5,3.9-4.3,5.6h0c-.9,2.1-1.8,4.3-3.9,7-.8,.5-.6-1.3-1.2-.9-.5,2.4-5.9,9.1-6.6,12,.3-.9-.1-1.3-.4-1.1l-.4,2c-1.4,1.6-1.7,1.8-1.9,1.3-3.7,5.2,2.4-.8-2.5,5.1,.3-.5,0-.4,.7-1.4-4.8,6-8.3,12.3-12.8,17.7-2.1,1,3.4-5.1,1.2-3.8-.7,1-1.4,2.1-2.2,3.2-.7,1.1-1.5,2.1-2.2,3.2-1.5,2.1-3,4.3-4.5,6.4-1.5,2.1-3,4.3-4.5,6.3-1.5,2.1-3.2,4-4.8,5.8l1.3-1.3c.4,2.1-5.3,5.1-7.9,9.4,.7-1,.4-1.8,.3-1.4-4.4,5.1-8.7,10.6-15.1,18.6l.5-1.2c-1.5,1.3-3.2,3.3-5.1,5.2-1.9,1.9-3.7,3.8-5.3,5.3-.6,1.2-2.3,2.9-.9,2.3-2.7,2-5.1,4.2-7.3,6.4-2.2,2.2-4.4,4.5-6.4,6.8-2.1,2.3-4.1,4.5-6.2,6.6-1.1,1.1-2.1,2.1-3.3,3-1.2,.9-2.3,1.8-3.6,2.6,1-1,2.2-2.5,1.4-1.8l-7.1,7c1.1,0,1.2-.6,3.2-1.6-.7,1.2-2.5,3.3-4.4,5,3-3.4-.8-.8-2.5,.2,.4,0,0,.6,.3,.6-2.3,1.3-2.3,1.7-2.3,2.3,0,.6-.3,1.4-3.3,3.4v-.5c-1.9,1.9-3.4,3.8-5.7,5.6-1.4,.2,1.9-2.1,1.6-2.8-3,2.7-5.1,6.4-8.4,8.1,1.2-1.3,3-2.9,4.2-4.2-3.6,1.9-3.8,2.4-6.2,4.2l.2-.2c-1.8,1.3-3.7,2.6-5.6,4l1.5-.9c-2.6,4.8-7.8,6.7-12.3,12.1,4.4-5.2,.4-1.3,.2-2.3-1.5,.9-3.8,2.2-3.4,1.6-2.1,2.5-4.6,2.8-7.6,6.3-.3-.1-2.8,2-2.6,1-3.2,2.7,1.1-.2,1,.3-1.1,1.2-2.5,2.3-4,3.3-.8,.5-1.6,1.1-2.4,1.6-.8,.5-1.7,1-2.6,1.6-3.5,2.2-7.3,4.6-10.8,7.8-1.6,1.3-2.8,2.3-3.8,3.2-1.1,.9-1.9,1.7-2.8,2.5-1.7,1.6-3.4,3.1-6.4,5.3-2.4,1,1.1-2,1.1-2-3.6,1.8-6.1,3.6-9.2,5.9,.5-.6-.3-.4-1.4,0-2.6,1.6-1.2,2-4.9,3.7,.4-.6,.9-1.5,2-2.6-2.9,2.1-5.7,4.4-8.8,6.5-1.1,0,1.5-1.8,2.5-2.8-3.5,2.3-9,6-9.8,7.3,.8-.3,1.6-.7,2.5-1.1-1.3,.8-1-.2-.1-.9,2.8-2.4,4.6-2.4,4.9-2.3l-2.2,1.5c3.2,0,9-5.8,13.6-8.4l-1.3,2.2c1.4-1.2,2.8-2.5,4.1-3.8,1.2-.4,2.2-.2,0,1.4,3.6-1.6,2.6-2.2,5.8-3.4,.4-.1,.3,0,0,.3l3-2.4c-.5,.6,1,.4-1,1.5,3-1.5,5.2-3.2,6.9-4.6,.9-.7,1.6-1.3,2.3-1.8,.7-.5,1.3-.9,2-1l-.4,.4c7.4-5.7,.2-1.3,5.4-6.2l5.2-.9,.2-1.3c.8-.5,2.4-1.6,2.3-1.1,2.6-2.6-.7,0,.6-1.6,2.2-1,4.7-3,6.9-4.6,2.2-1.7,4.1-3,4.9-2.7,.9-1.6-3.9,2.2-.2-1.1,2.1,.4,4.4-3.7,8.3-5.6-.5,1.4-4,3.5-.2,1.5,1.2-2.6,6.7-4.9,9.3-7.4-.3-.5,1.2-1.8,3.2-3.5,1-.8,2.2-1.8,3.4-2.8,.6-.5,1.2-1,1.8-1.5,.6-.5,1.2-1.1,1.7-1.6,0,.5,9-6.9,13.5-10.3v.2c.1-1.5,4.5-5.2,7.5-8.2,.3,.6,0,1.3-1.5,3.1l2.9-2.7c.5-.9,1.2-1.9,3-3.7l-.2,1.3c1.9-1.8,3.7-3.8,5.7-5.8,1.9-2.1,4-4.3,6.6-6.4-.3-.8-5.3,2.2-.6-3.1,.5,.1,1.2,.4,0,1.9,.4-.5,1.3-1.8,2.3-2.5l-1.6,2.5c2.4-1.9,.7-1.5,2.5-3.2,.4,.5,1.6-1,1.7-.4-.4,.5-1.7,1.3-2.2,2.2,2.1-1.9,4.7-4,5.8-4.4-.4,0-.6-.6,.8-2,3.6-3.8,1.8-.8,4.1-2.8,.6-1.2,3.2-3.3,2.6-4,1.1-1.1,1.6-1,2.1-1.3,1.6-2.2,8.7-9.3,5.9-7.7l-.5,.5c0-.1,.2-.2,.3-.3h0c2.7-3.6,5.8-7,9.1-10.3,3.2-3.3,6.5-6.6,9.2-10.1l.2,.2c3.1-4.3,7.4-9.2,9.3-12.4,1-1.2,2.7-2.5,2.6-1.8,2.3-3.3,2.3-3.9,6.3-8.2-2.1,3.5,1.2-.8-2.3,3.5,3.4-4,4.5-4.6,7.4-9.6-.3,1,.5,.4,1.6-.8,1-1.1,2.2-2.9,2.9-3.9l-2.6,2.7c1.6-2.3,3.1-4.3,4.6-6.3v1.7c3.7-4,6.1-8.2,8.4-12.1,2.2-4,4.3-7.6,7.5-10.5,1-2.7-3.7,4.6-2.9,2,2.9-4,7-7.5,7.8-8.8,4.1-5.4,2.2-6.1,6.3-11.9-.8,.6-2,.8,.5-3.9,2.7-4.1,4.5-4.4,3.1-1.6-.6,1-1,1.4-1.1,1.3-.7,1.4-1.7,3.3-.4,1.8v-.7c.8-.9,2.2-2.9,3.2-4.3,1-1.5,1.8-2.5,1.7-1.7,1.6-3.4,.3-1.7-1.3,.6,1.8-2.6,3.1-4.7,4.4-6.9,1.3-2.2,2.5-4.4,4.2-7.1-.7,.8-1.5,1.4-1,.5,2.6-4,2.9-5.1,3-5.8,.1-.7,0-1.1,1.5-4,2.2-3,.5,1.8,3.2-4.2,2.2-3.4,1.2-.3,.7,1.2,1.1-2.8,2.5-5.2,3.8-7.3,1.3-2.1,2.5-3.9,3.4-5.4l-1.2,3c.7-1.8,1.4-3.1,2.1-4.6l-1.4,1.3c.9-1.6,1.6-3,1.9-2.8,.4-1.9-1.7,.8-.6-2.9,1.4-2.1,2.9-6.9,4.1-7.3-3.6,6.9,1.2-.4-1.4,5.6,.4-1.2,1.1-2.6,2-4.2,.2-.2,0,.3-.1,.8,3.8-6.4,.4-3.6,3.6-10.6,.1,1.1,1.6-1.2,2-2.5-1.2,2.9-1.4,1-.7-1.8,2.3-4.4,1.8-5.1,2.8-7.4l-1.3,2.7c-.1-1.1,.8-3.4,1.9-6.6,.5-.1-.9,3-.2,1.9,.2-1.9,1.3-3.8,2.3-6,1.1-2.1,2.2-4.4,2.8-7,1.2-2.2,1,.1,2-1.9,.6-3,1.3-4.4,2-5.9,.7-1.5,1.4-3.1,2-6.2-1.2,1.5-1.1,1.9-.5-2.6-.8,3.3-1.6,6.7-2.5,10,.4-2.2,.7-4.4,1-6.6-.8,3-1.6,6.4-2.2,8.1,.4-3.2,.5-2.8-.5-1.6,2.4-3.7,1.9-8.2,4-12.7l1.7,.6c1.4-3.5,2-6.7,2.6-10.2,.3-1.8,.5-3.6,.9-5.6,.3-2,.9-4.1,1.4-6.4-.3,1-.6,2-.9,3-.4-1.4,1-5.8,1.4-8.9,.5,.4,1.1-1.5,1.7-2.7-.5,0,1.1-7,.1-8,.5-1.4,.9-2.8,1.3-4.2,1.3-7.7-.7-9,0-16.4,.5,2.3,1.2-1.1,1.2,3.9,.2-2.5,.5-4.7,0-4.8,.4-1.4-.5-6.9,.1-9.2-.3-1.1-.9-1.4-.8-4.2,.1-.3,.3,0,.3,0-.3,0-.4-4.4-1.1-1.9,.2-1,.4-2,.5-3.1,.1-1.1,.1-2.3,.1-3.6,0-2.5,0-5.1-.3-7.7-.2-2.6-.5-5.2-.6-7.5,0-1.2-.1-2.3-.1-3.3,0-1,0-2,0-2.8-.4-2.7-.9-5.7-1.5-8.5-.3-1.4-.6-2.9-.8-4.2-.2-1.4-.5-2.7-.8-3.9,.2,.3,.3,0,.4,.9-.4-3.4-1.1-4.3-1.7-5.4-.3-.5-.7-1.1-1-2-.3-.9-.6-2.1-1-4,0-4.1,1.6,3.8,1.3,1.4,1.6-1.5-2.5-9-3.2-14.3l.5,1.2c-.1-1-.4-2.1-.8-3.2-.2-.6-.4-1.2-.7-1.8-.3-.6-.6-1.2-.9-1.8-1.2-2.5-2.5-5.3-3.7-8.3,0,0,.3,.2,.3,0-1.4-1.9-2.9-4.7-4.5-7.8-1.8-3-3.5-6.2-5.1-8.9,1.6,1.4,1.6,2.4,1.8,.9-1.4-2.4-.7,1.3-3.6-3.5-.5-1.8-2.2-5.5-1.8-6.4,.9,1.5,1.8,3.1,2.7,4.6-.2-1.4-1.1-2.9-2-4.4-1-1.4-2.2-2.7-2.8-4h.6c-1.1-1.6-2.1-2.9-2.9-3.9-.8-1-1.6-1.8-2.3-2.6-.7-.8-1.5-1.6-2.4-2.6-.9-1-1.9-2.3-3.3-4l.3,.9c-1.9-1.5-2.4-2.4-2.9-3.2-.5-.9-.9-1.8-2.9-3.3v-1.9c-.7-.5-1.5-1.3-2.5-2.1-1-.8-2.1-1.8-3.3-2.7-.6-.5-1.2-1-1.8-1.5-.6-.5-1.3-1-1.9-1.4-.6-.5-1.3-1-1.9-1.4-.6-.4-1.2-.9-1.8-1.3,.8,.3,1.7,.8,2.7,1.4,1,.6,2,1.3,3.1,2.1,1,.8,2.1,1.6,3.1,2.4,1,.8,1.9,1.6,2.7,2.2-.6-.6-1.3-1.3-2.1-2.2-.9-.8-1.8-1.7-2.8-2.5-1.9-1.6-3.8-3-4.6-3.3,1.1,.7,2.4,1.6,3.3,2.5-3.5-1.9-7.7-4.7-12.9-8.1,1.1-.6-2.2-3.1-6.5-5.4-4.3-2.3-9.4-4.3-11.4-5.8-5.5-1.3-11-2.5-16.9-3.1-5.8-.6-12-.7-18.5,.4,2.5,.5,1.5,.7,0,.9-1.4,.2-3.3,.7-2.7,1.5-.7,.2-1.4,.3-1.9,.4-.5,.1-.9,.2-1.3,.3-.7,.2-1,.2-1.2,.2-3,.4-6.1,.9-9.1,1.6-2.2,.2,2.6-1.3,2.2-1.6-3.2,1-3.9,1-4.4,1-.5,0-.7-.3-2.9,.3,1.1,.3-1.8,1.7-5.4,3.1,1.7-.5,3.5-.9,5.2-1.4-4.1,2.2-6,2.8-8,3.3-2,.6-4,1.1-7.8,3.9l2.3-1.9c-2,1.3-5.9,3.5-9.5,6-3.6,2.5-7,5.3-8.4,7.3-.8,.3-2,.6-.4-.8-4.7,3.3-9.3,7.6-13.6,11.9-4.3,4.2-8.2,8.3-11.6,11.1l.3-.9c-1.4,1.6-2,3.2-4.1,4.8,0-.2,.3-.9-.4-.2-.3,.5-1.1,1.6-2.1,2.9-1,1.3-2.1,2.7-3.2,3.7l1.2-2.1c-3.9,3.9-6.3,7.4-8.6,10.6-1.1,1.7-2.2,3.3-3.4,4.9-1.1,1.7-2.3,3.4-3.7,5.3-1-.8-6.8,5.6-9.6,8.9v-.2c-4,5.1-7,9.6-9.9,14-2.8,4.6-5.4,9.1-8.5,14-2.7,2.6-6.1,7.8-9.9,13.4-.5,.7-.9,1.4-1.4,2.1-.5,.7-.9,1.5-1.4,2.2-.9,1.5-1.8,2.9-2.7,4.4-1.8,2.9-3.6,5.7-5.3,8.1,1.2-1.4,.7,.8-.2,2.7-1.6,2.3-3,7.1-3.8,6.1l.5-.8c-1,.6-2.2,2.2-3.4,4.1-1.2,1.9-2.4,4.1-3.4,6.1l1,1.4c-7.6,9.1-13.2,27.4-17.7,32.2-.8,2.7-2.3,5.9-3.1,8.5l-.7-.5c-.9,1.7-1.6,3.3-2.3,4.7-.7,1.5-1.3,2.8-1.9,4.3-1.3,2.9-2.6,6-4.4,10.4l.2-2c-1.1,2.5-1.2,4.3-1.2,6.1,0,1.8,0,3.5-1,5.8l-1.7,.9c-.9,2.2-1.8,4.4-2.8,6.5-.9,2.2-1.8,4.4-2.7,6.6-1.8,4.4-3.5,8.8-4.5,13.4-.1-.2-.4-.6,0-2.1-1.5,4.2-6.5,15.9-4.3,15-1.2-.3-3.1,9.2-4.2,14.2l-.6-1c-.3,4.4-.1,4.6-1.5,10.4-.5,1.3-1,1-.2-.7-1.8,4.4-.3,3.8-2.4,9.1v-2.2c-1.4,4.6-1,4.4-1.1,7.1-.5,3-2.7,8.8-3.6,9.3,.3,.8,.1,3.5-.8,6.2-.4,.3-.3-.8-.2-1.3-2.7,7.7-2.1,12-4.3,17.2-.3,0-.5,.4-.7,.8,1.6-6.3,3-11.3,2.9-10.8-.7-.2-2.2,4.8-2.2,.5-.2,2.1-.5,5-.9,7.9-.2,1.5-.4,3-.7,4.4-.3,1.4-.6,2.8-1,4-.1,.2-.3,.4-.4,.6v-.5c-.3,1.1-.5,2.2-.6,3.2-.5,1.6-.8,2.5-1.2,4.1-.7,.4-1.8,5.7-2.3,8.3,.9,0,0,3.3,1.4,.3-.1,.4,0-.5,.3-2.2,0-.4,.2-.8,.2-1.1,0,0,0,.1,0,.2,.4-1.7,.9-3.8,1.5-6.3,0,2.1-.2,4.3-1.3,7,.2,1.4,.5,3,.5,3.8-1.9,3.2-4,9.8-4.9,10.6-.7,3.9-1.5,8.5-2.1,12.8-.6,4.3-1.1,8.2-.8,10.8-.2,2.3-.9,2.5-1.3,3.3,0-1.3,.4-2.8,.3-3.6-.4,4.5-2.3,13.2-1.4,14.4-1.5,5.5-.5-3.3-1.6,4.4l-.2-1.1c-4.4,14.9-1.4,25.1-6.1,41.6,.3-1.1,.5-1.7,.7-1.9-3.8,19.1-4.4,39.8-8,58.7-.9,5.4-.3,6.1,0,9.4l-1,1.1,.5,5.8c0,4.1-.9,7.5-1.7,11.2-.8,3.7-1.5,7.7-1.2,12.8l.7-1.3c-.5,3.6-.6,11.6-1.2,10.9,0,.4,.5,1.2,.1,2.7h-.5v9.1c-.7,6.9-1.7-1.2-2.5,8.9,0,3.8,.7,10.9,1.1,9.5,.1-1.5,.6-3.9,1-4v3.5c1.4,.7,2.6,3.5,4.2-4.9l-.5-6,.8-1.9-.3,5c.8-2.8,.4-4.6,.1-6.6,.4-.4,.7-1.3,.9-2.4l-.9-5.9c.6-.7,.9,2.7,1.5-1.2-.4-2.8-1.4,2.5-1.5-2,.8-2.8,1.3-1.9,1-5.3,.4-.4,.6,.3,.6,1.6-.2-3,.4-7.8-.2-9.4,1-2.9,.6-10,1.9-9.6-.2-1-.6-5.3-.4-8,1.1,5.1,1.1-10.1,2.6-8.6-1.1-3.8,.7-13.2,.6-19.8,0,.4,.2,1.1,0,1.7,.5-3.6,1-4.6,1.6-6.9-1.1-.6-.7-6.3-1.1-9.4,1.7-4.3,1.1,2.9,2.3,1.6-1,.1,0-7.8-1-6.4,1.1-3.3,.7-2.9,1.9-4.5-1.4-.8,.2-3.2-.4-6.1,1.4-4.8,1.5-1.1,1.8-6.5,.8-2.5,.7,2.4,.7,2.4Zm21-127.8h0c-.2,1.1-.4,2-.6,2.6,.1-.5,.3-1.3,.6-2.6Zm2.7-10.6c-.4,1.3-.8,2.9-1.2,4.6-.4,.3-.6-.2-.3-1.2,0,.6,.8-1.8,1.5-3.3Zm-11.2,21c.3-1.7,.6-2.2,.8-2.4-.2,.8-.4,1.7-.6,3,0,0,0,.2,0,.2-.1-.2-.2-.4-.3-.8Z"/>
            <path class="uuid-19328dc0-a2d7-4d2a-ae84-3f5491a816a6" d="M410.7,433.4c0,.2,0,.4,0,.7,.2-.3,.3-.6,.4-1,0-.2,0-.5-.1-.7,0,.3-.1,.6-.2,.9Z"/>
            <path class="uuid-19328dc0-a2d7-4d2a-ae84-3f5491a816a6" d="M624.9,520.9l.2-.2c-.2,.1-.3,.2-.4,.3,.1,0,.2,0,.2-.1Z"/>
            <polygon class="uuid-19328dc0-a2d7-4d2a-ae84-3f5491a816a6" points="473.3 268.4 473.1 268.3 472.9 269.3 473.3 268.4"/>
            <path class="uuid-19328dc0-a2d7-4d2a-ae84-3f5491a816a6" d="M580,561c-.1,0-.4,.1-.7,.4,0,0,.4-.2,.7-.4Z"/>
            <path class="uuid-19328dc0-a2d7-4d2a-ae84-3f5491a816a6" d="M560.3,577.8l-3,2.1c1.3-.9,2.3-1.5,3-2.1Z"/>
            <path class="uuid-19328dc0-a2d7-4d2a-ae84-3f5491a816a6" d="M544.5,590c-.1,.3,0,.4,0,.5h0v-.5Z"/>
            <path class="uuid-19328dc0-a2d7-4d2a-ae84-3f5491a816a6" d="M736.2,342.9c0-.2,.2-.5,.2-.7,.5-1.7,.1-.6-.2,.7Z"/>
            <path class="uuid-19328dc0-a2d7-4d2a-ae84-3f5491a816a6" d="M694.3,427c.4-.9,.8-1.8,1.3-2.8-.9,1.4-1.7,2.5-1.3,2.8Z"/>
            <path class="uuid-19328dc0-a2d7-4d2a-ae84-3f5491a816a6" d="M757.5,241.5s0,0,0,0c0-.2,0-.4,0-.6v.6Z"/>
            <path class="uuid-19328dc0-a2d7-4d2a-ae84-3f5491a816a6" d="M697.9,420.5c-1,1.3-1.8,2.5-2.3,3.7,.8-1.1,1.7-2.5,2.3-3.7Z"/>
            <path class="uuid-19328dc0-a2d7-4d2a-ae84-3f5491a816a6" d="M473,638l-.8,.5s0,.1,0,.2l.9-.6Z"/>
            <path class="uuid-19328dc0-a2d7-4d2a-ae84-3f5491a816a6" d="M472.2,638.6l-.9,.6c.4-.3,.8-.5,.9-.6Z"/>
            <path class="uuid-19328dc0-a2d7-4d2a-ae84-3f5491a816a6" d="M469.5,640.6c.6-.4,1.2-.8,1.8-1.3-.7,.4-1.5,.8-1.8,1.3Z"/>
            <path class="uuid-19328dc0-a2d7-4d2a-ae84-3f5491a816a6" d="M495.7,624.5v-.4c0,.1,0,.3,0,.4Z"/>
            <path class="uuid-19328dc0-a2d7-4d2a-ae84-3f5491a816a6" d="M502.3,620.1c-1.6,1-4.4,2.1-6.5,3.7v.3c.7-1.1,5.3-2.6,6.5-4Z"/>
            <path class="uuid-19328dc0-a2d7-4d2a-ae84-3f5491a816a6" d="M532,604.1c-1.9,1.3-3.7,2.6-5.6,3.8,1.2-.4,2.7-.9,.2,.9,7.5-4.2-1.8,.5,5.4-4.7Z"/>
            <path class="uuid-19328dc0-a2d7-4d2a-ae84-3f5491a816a6" d="M548.9,591.8c-2.7,2.4,.3,.3,.3,.6,1.6-1.7,2-2.1-.3-.6Z"/>
            <path class="uuid-19328dc0-a2d7-4d2a-ae84-3f5491a816a6" d="M656.2,485.6l.4,.8c1.6-2.3-.2-.2-.4-.8Z"/>
            <polygon class="uuid-19328dc0-a2d7-4d2a-ae84-3f5491a816a6" points="670.5 460.3 668.6 462.2 668.4 463.6 670.5 460.3"/>
            <polygon class="uuid-19328dc0-a2d7-4d2a-ae84-3f5491a816a6" points="684.9 449.6 684.3 450.7 686.7 446.6 684.9 449.6"/>
            <path class="uuid-19328dc0-a2d7-4d2a-ae84-3f5491a816a6" d="M763.9,212l-.9,.9c.3,1.9,1.4,2.2,.9-.9Z"/>
            <path class="uuid-19328dc0-a2d7-4d2a-ae84-3f5491a816a6" d="M724.3,110.1c-.2-.6-.7-1.6-1.4-2.6-.7-.9-1.6-1.9-2.4-2.5,.8,1,1.5,2,2.2,2.9,.6,.9,1.2,1.7,1.6,2.1Z"/>
            <polygon class="uuid-19328dc0-a2d7-4d2a-ae84-3f5491a816a6" points="479.6 239.1 480.4 237 478.6 240.8 479.6 239.1"/>
          </g>
          <g>
            <g>
              <path class="uuid-19328dc0-a2d7-4d2a-ae84-3f5491a816a6" d="M1034.3,630.5c.2,.7,.8,.4,.8-1.5l-.9-1.4v2.8Z"/>
              <path class="uuid-19328dc0-a2d7-4d2a-ae84-3f5491a816a6" d="M1037,618.5c-.3-2.1-1-4.6-2-3.3,.8,2.2,.4,2.6,1.3,5,0,1.8-.6,3.1-.9,2.8,.2,.7-.4,2.8,.1,3.8,.9-2.3,1.2-5.2,.8-8.4,.3-.6,.5,0,.6,.2Z"/>
              <path class="uuid-19328dc0-a2d7-4d2a-ae84-3f5491a816a6" d="M1044.2,442.5v1.1c0-.3,0-.7,0-1.1Z"/>
              <path class="uuid-19328dc0-a2d7-4d2a-ae84-3f5491a816a6" d="M1040.3,333.3c0,.8,.2,1.2,.3,1.2-.1-.8-.2-1.4-.3-1.2Z"/>
              <path class="uuid-19328dc0-a2d7-4d2a-ae84-3f5491a816a6" d="M1040.1,314.6c0,.4,0,.7,0,1.1,0-.4,0-.9,0-1.1Z"/>
              <path class="uuid-19328dc0-a2d7-4d2a-ae84-3f5491a816a6" d="M1044.2,442.5l.3-2.9c-.3-.2-.2,1.5-.3,2.9Z"/>
              <path class="uuid-19328dc0-a2d7-4d2a-ae84-3f5491a816a6" d="M1036.3,594.2c0,.6,0,1.1,.2,1.6,0-.5,0-1,0-1.5,0,0,0,0-.1-.1Z"/>
              <path class="uuid-19328dc0-a2d7-4d2a-ae84-3f5491a816a6" d="M1045,490.7v.9c.1,.3,.2,.5,.4,.7l-.4-1.6Z"/>
              <path class="uuid-19328dc0-a2d7-4d2a-ae84-3f5491a816a6" d="M1044.4,527.6c0-.8-.8-1.2-1.1-1.5,.3,.5,.5,1.1,.5,1.8,.2,0,.4,0,.6-.4Z"/>
              <path class="uuid-19328dc0-a2d7-4d2a-ae84-3f5491a816a6" d="M1040.3,586.1v1c0-.3,0-.7,0-1Z"/>
              <path class="uuid-19328dc0-a2d7-4d2a-ae84-3f5491a816a6" d="M1045.3,464.2c.1,0,.2-.2,.3-.3-.1,0-.2,.1-.3,.3Z"/>
              <path class="uuid-19328dc0-a2d7-4d2a-ae84-3f5491a816a6" d="M760.3,600.3c0,0,0,0-.1,0,0,.2,.2,.3,.1,0Z"/>
              <path class="uuid-19328dc0-a2d7-4d2a-ae84-3f5491a816a6" d="M757.4,643.2v-.6c-.2,0-.4-.1-.5-.1l.5,.7Z"/>
              <path class="uuid-19328dc0-a2d7-4d2a-ae84-3f5491a816a6" d="M1038.2,280.5v.2c.2,.9,.1,.4,0-.2Z"/>
              <path class="uuid-19328dc0-a2d7-4d2a-ae84-3f5491a816a6" d="M898.2,94.7c1.6-.9,.7,.2,0,1.3-.7,1.1-1.2,1.9,1,.3-.6,0,2.7-4.3-.9-1.6Z"/>
              <path class="uuid-19328dc0-a2d7-4d2a-ae84-3f5491a816a6" d="M1036.5,593.2c0-.5,0-1,0-1.5,0,.7,0,1.1,0,1.5Z"/>
              <path class="uuid-19328dc0-a2d7-4d2a-ae84-3f5491a816a6" d="M899.1,96.3h0c.1-.1,.3-.2,.5-.3-.2,.1-.3,.2-.5,.3Z"/>
              <path class="uuid-19328dc0-a2d7-4d2a-ae84-3f5491a816a6" d="M1028.7,202.3c-.1,.2-.2,.5-.3,.8,0,0,.2-.2,.3-.8Z"/>
              <path class="uuid-19328dc0-a2d7-4d2a-ae84-3f5491a816a6" d="M1034.5,260.7v-1.5c0,.6,0,1,0,1.5Z"/>
              <path class="uuid-19328dc0-a2d7-4d2a-ae84-3f5491a816a6" d="M1023,172.4c0-.8,0-1.1-.3-2.1,0,.1,0,.2,0,.3,.2,.4,.3,.9,.3,1.8Z"/>
              <path class="uuid-19328dc0-a2d7-4d2a-ae84-3f5491a816a6" d="M1016.8,141.2c0,.2,0,.4,0,.6,0,.3,.2,.7,.3,1l-.2-1.6Z"/>
              <path class="uuid-19328dc0-a2d7-4d2a-ae84-3f5491a816a6" d="M761.6,504.5c-.3,.7-.6,1.1-.8,1.4,.6-.5,.6,4.2,.8-1.4Z"/>
              <path class="uuid-19328dc0-a2d7-4d2a-ae84-3f5491a816a6" d="M1036.8,594.2c-.2-.2-.3-.5-.3-1,0,.4,0,.7,0,1.1,.1,0,.2,.1,.3,0Z"/>
              <path class="uuid-19328dc0-a2d7-4d2a-ae84-3f5491a816a6" d="M1016.3,172.2l-.7-4.9c.2,1.4,.4,3.2,.7,4.9Z"/>
              <path class="uuid-19328dc0-a2d7-4d2a-ae84-3f5491a816a6" d="M800.7,282.4l-.3,1.1c.2-.4,.3-.8,.3-1.1Z"/>
              <path class="uuid-19328dc0-a2d7-4d2a-ae84-3f5491a816a6" d="M1012.6,152.8c.1-.9,0-1.9,0-2.9-.1-.2-.2-.4-.3-.5l.3,3.4Z"/>
              <path class="uuid-19328dc0-a2d7-4d2a-ae84-3f5491a816a6" d="M760.8,505.9s0,0,0,0c0,0,0,0,0,0Z"/>
              <path class="uuid-19328dc0-a2d7-4d2a-ae84-3f5491a816a6" d="M761.4,538.9c.2-4.8-1-2.3-1.6-3.3-.1-5.7,.9-2.6,1.5-4.5-.2-3.6-1.1-6.3-.9-9,.2-.2,.3-.7,.5,0-.4-1.9-.3-4.7-.2-7.6,.1-2.9,.2-5.8-.2-8,.1-.3,.2-.5,.3-.6-.6,.7-1.2,.8-1.6,.6,0-2.1-.5-4,.3-4.8,0,1.3,.2,1.4,.4,2.1l-.2-2.3c1.1-2,.2,3.1,1,3.1-.1-4.4-.6-9.5-.1-12.9,1.1-.6-.2,7.9,1,3.4l-.7,5.2c1.8-3.9-.3,3.1,1.6-.4,.7-6.8,0-7.6,.7-14.4-.5-1.6-.9,.4-1.3-1.1-.2-9.7,3.1-7.4,2.4-14.6-.5-1.9-1.7-2.7-.6-7.7l1,1.8c.7-6.6-1.3-3.9,.2-10.7,.3,1.3-.2,5.2,0,4.2,1.4-4.4-.3-3.2,0-6.6l1.1-.6c.5-7,.8-14.8,1.6-22.5,.2,.5,.4,1.8,.9,0,.4-4.9,1.1-10.1,2.1-15.2,1-5.1,2-10.2,3.1-14.8l-.3-3.7c.2-.8,.7-1.5,.7-.5,.9-3.6-.5-.3-.6-2.1,.3-2.1,1-2.6,1-1.3,.1-3.3,.6-7.9,1.3-12.5,.3-2.3,.7-4.6,1.2-6.8,.5-2.1,1-4.1,1.6-5.8v1.4c1.4-5.2-.6-6.3,1.3-11v1c1.4-5.6,2.5-11.6,4-17.2,.7-2.8,1.4-5.5,2.1-8,.7-2.5,1.6-4.8,2.5-6.9-.4-1,.5-3.7,1.2-6.4,.8-2.6,1.5-5.2,.8-5.8,1.3-3.1,1.9-4.1,2.6-5.5,.7-1.4,1.4-3.1,3-7.5,.8-2.4,0-3.9,.7-6.9l.9,.2c.1-1.4,.2-2.9,.3-4.3l1.7-1.8,.7-2.8c-.4,1.1-1.2,2.2-1.4,1.9,1-4.4,4-10.3,4.5-10.2l2.8-10.3c.3,.3-.2,2.1-.4,3.5,1-5.7,1.3-.7,2.2-5.9-.4,.6-.4-.5-.5-.7,1.4-2.2,3.5-7.8,4.8-12l.3,1c3-7.3,5.8-15.6,9.3-23.8-1.5,2.8-2.2,1.7-1.3-.7l1.3-.6c.1-1.8-1.4,2.4-.7-1.1,1.4-3,1.9-1.6,1.4,.3,.4-1.3,.8-2.6,1.3-3.8,.4,0,.1,.8,.4,1.2,.1-1.8,3.7-5.9,3.8-8.5h.4c1.8-4.1,3.1-7.1,4.4-9.8,1.2-2.7,2.3-5.4,3.9-8.6-.7-.5,.7-2.9,1.1-5.2,2.7-4.6,6-9.5,9-15.1,1.8-4.1,0-1.5,.6-3.5,.8,0,4-5.5,2.8-2.3,.9-1.7,1.7-3,2.4-4.3,.7-1.2,1.3-2.4,2-3.5,1.3-2.4,2.7-5,5.1-9.2-.8,.7-1.6,1.6-1.5,1,.8-1.6,2.4-3.2,2.6-2.8l-.2,.4c1.2-2.5,2.9-4.9,4.7-7.3,1.8-2.4,3.8-4.7,5.7-7,1.9-2.3,3.9-4.5,5.6-6.6,.9-1.1,1.6-2.1,2.3-3.1,.7-1,1.4-2,1.9-2.9l-.2,.4c1.7-2.5,3.3-5,5.1-7.4,2.8-3-1.2,2.2,1.2,.3,1.4-2,2.6-3.8,3.9-5.3,1.3-1.5,2.6-2.8,3.9-4.1,.6-.6,1.3-1.3,1.9-1.9,.6-.6,1.3-1.2,1.9-1.8,1.3-1.3,2.5-2.6,3.8-4.2,1.5-.7,3.3-1.9,5.1-3.5,.9-.8,1.9-1.7,2.9-2.6,1-.9,2.1-1.8,3.1-2.8,1.1-.9,2.1-1.9,3.2-2.8,1.1-.9,2.2-1.8,3.3-2.6,2.2-1.6,4.2-3.1,6.1-4l-.7-.2c1.4-1.7,2.3-1.2,3.6-2-.4-.2-2.2,.9-1.2,0,7.2-5.3,15.5-9.5,24.2-11.2,4.3-.8,8.7-.9,12.8-.1,4.1,.8,7.9,2.4,11.4,4.6,.3,.2,.6,.4,.9,.5,.3,.2,.5,.3,.7,.4,.5,.3,.9,.4,1.2,.5,.7,.2,1.3,.3,1.9,.5,.6,.2,1.2,.3,2,.9,.4,.3,.8,.7,1.3,1.2,.2,.3,.5,.6,.8,.9,.2,.4,.5,.7,.8,1.2-.8-.4-1.5-.7-2.3-1,2.4,2.1,4.6,4.5,6.5,7.3,1.9,2.8,3.6,5.7,5.1,8.8,1.5,3.1,2.8,6.2,4.1,9.4,1.3,3.1,2.5,6.4,3.8,9.5-.5-.7-.8-.6-1.2-1.9,.3,2.9,3.2,10,3.8,9.9,.5,2-.4,.6-.3,1.9,.4,2.8,2.8,6.6,2.6,8.3,0,.3-.4-.7-.6-1.2,.9,1.7,2.1,8.4,2.5,6.5,.4,2.5,1.1,4.8,1.7,7,.6,2.2,1.1,4.3,1.3,6.3,1.5,2.4,1.3,8.6,2.8,9.2-1.4,0,.6,8.9,1.7,12-.6-1,0,2.8-.7,1.7,.7,3.6,1.4,6.9,2,6.1-.5,6.9,3.4,13.3,1.8,17.3,2.3,10.7,3.9,20.7,5.5,30.4-1.4-.2-1.5-10.8-2.8-10.2,.9,4.6,1.7,8.2,2.5,11.8,.4,1.8,.7,3.6,1.1,5.5,.3,1.9,.5,4,.7,6.3,0,2.4-.7-1.3-1.1-2.1,1.6,9.2,1.9,17.9,3.5,26.1-.1,0-.4-.9-.5-1.7,.2,1.6,.2,3.8,.8,3.6l-.3-1.6c.6-2.7,2.5,6.3,3,6.5-2-2.6,.4,8.2-2.3,4,.2,1.1,.6,2.4,1,2.1,0,1.6-.2,2.1-.8,.6,.9,5.8,1.4,3.7,1.9,9-.3,0-.5-1-.9-1.6,.8,2.6,1.6,5.3,1.8,9.8-.2-.3-.4,.3-.5-1,.7,7.7,2.7,13,2.8,21.4-1.5-2.4-.2,2.9-1.3,3.4l.7,4.5,.4-1.9c.3,4,1.3,7.4,1.2,10.9l-.7-2.9,.7,7.4v-4.2c1,4,1.5-.5,1.6,4.8,0-.5,0,.5,0,1.9,0,1.4,0,3.2-.3,4.2h0c.5,1.9,1,3.9,.9,6.9-.3,.8-1.3-.5-1.5,0,1,1.9,.8,9.3,1.9,11.7-.3-.8-.9-.8-1-.5l.9,1.6c-.1,1.9-.2,2.1-.7,1.9,.1,5.6,1.3-1.8,1,4.8,0-.5-.2-.3-.4-1.3,0,6.6,1.1,12.8,1,18.8-1,1.8-.5-5.3-1.4-3.2,.7,8.7,2,18.1,2,26.6v-1.6c1.7,1.1-.5,6.3,.4,10.6-.1-1-.9-1.4-.7-1.1-.1,5.8,.6,11.9,1.3,20.7l-.4-1.1c-.3,3.4,0,9-.2,12.7,.4,1.1,.4,3.2,.9,1.9-1.1,5.7-.8,11.1-.4,16.4,.4,5.3,.7,10.4-.3,15.5,0-1.2-.3-2.9-.3-1.9l.3,8.6c.7-.7,.4-1.1,1-2.9,.4,1.1,.7,3.5,.7,5.7-.4-3.9-1.1,0-1.5,1.7,.2-.3,.4,.3,.7,.2-1.3,4.5,1.4,.8,.4,6.9l-.4-.3c.1,2.3,.6,4.4,.4,6.9-.8,1-.3-2.5-1-2.6,0,3.5,1.4,6.9,.5,10-.2-1.5-.1-3.6-.3-5.1-1,3.4-.8,3.8-1,6.4v-.3l-.5,5.9,.3-1.5c2,4.4,0,8.9,1.3,14.8-1.1-5.8-.7-1-1.6-1.4-.3,1.5-.7,3.8-.9,3.1,.6,2.8-.7,4.6,.2,8.6-.3,.2-.1,3-.8,2.3,.1,3.6,.5-.8,.9-.5,.8,5.6-1.8,13-.8,21.1,.1,3.5,.4,5.5,.7,7.5,.3,2,.5,3.9,.6,7.2-.6,2.1-1-1.8-1-1.8-.6,3.5-.7,6.1-.6,9.4-.2-.7-.5,0-.9,1,0,2.6,1,1.8,.3,5.3-.3-.6-.8-1.4-1-2.7,0,3.1,.4,6.2,.5,9.4-.6,.8-.6-2-.9-3.1,0,3.6-.2,9.4,.5,10.5l.5-2.3c0,1.3-.7,.6-.8-.4-.4-3.1,.6-4.4,.9-4.6v2.3c1.9-2.2,.4-9.2,.7-13.8l1.1,2-.7-4.8c.4-1,1.1-1.6,1.2,.7,.8-3.3-.3-3,.6-5.7,.1-.3,.2-.2,.2,.1l-.2-3.3c.2,.6,.9-.5,.6,1.5,1.1-5.8-.4-9.4,.7-11.5v.5c0-8.1-.8-.8-1.6-6.9l2.5-4-.9-.8c0-.8,.2-2.5,.6-2.1-.5-3.1-.4,.5-.9-1.3,.5-2,.6-4.7,.6-7.1,0-2.4,.2-4.3,.9-4.8-.6-1.5-.7,3.8-1-.5,1.6-1.2,0-4.9,.8-8.6,.8,1.1,.2,4.6,1.1,1-1.3-2.3,.6-7.1,.4-10.2-.5,0-.6-1.8-.5-4.1,0-2.3,.2-5.2,0-7.8,.4,.3,.8-9.7,1.3-14.5h.2c-.5-.3-.7-1.8-.8-3.6,0-1.8,0-4-.2-5.8,.7,.1,.9,.8,1.2,2.8v-3.4c-.3-.8-.5-1.9-.6-4.1l.8,.9c0-4.5-.9-9.1-.3-14.9-.8-.3-2.2,4.6-2.6-1.5,.4-.2,1.1-.5,1.3,1.2,0-.5-.3-1.9-.2-2.9l.7,2.5c.3-2.6-.6-1.4-.5-3.5,.6,0,.4-1.6,.9-1.3,0,.5-.2,1.8,0,2.7,0-2.4,.4-5.3,.9-6.2-.3,.2-.8,0-.9-1.7,0-4.5,.7-1.6,1-4.2-.4-1.1,0-4-.9-4.1,0-1.3,.4-1.6,.6-2.1-.4-2.3-.2-10.9-1.1-8.3v.6c0-.1,0-.2,0-.4h0c-1-7.7,.2-15.9-.3-23.5h.3c-.4-4.5-.5-10.1-1.2-13.3,0-1.3,.4-3.2,.8-2.6-.3-3.5-.7-3.8-.3-8.9,.6,3.5,.4-1.2,.5,3.6,0-4.5,.6-5.6-.4-10.4,.8,1.6,.8-3.4,.5-5.6l-.4,3.2c-.2-2.4-.2-4.5-.3-6.7l1,1.1c.8-9.3-2.8-16.6-1.2-23.7-.8-2.4-.2,5-1.1,2.9-.1-4.2,1.1-8.8,1-10.1,.2-5.9-1.8-5.3-1.8-11.4-.3,.8-1.2,1.6-1.9-2.9-.2-4.2,1.1-5.3,1.6-2.7,.1,1,0,1.5,0,1.5,.2,1.4,.5,3.2,.8,1.4l-.4-.5c.2-2.1-.2-8,.4-6.6-.6-3.2-.7-1.3-.7,1.1,.1-5.5-.6-8.5-.7-14.1-.1,.9-.5,1.8-.5,.9-.2-8.3-.9-3.6-1.6-9.1,.3-3.2,1.4,1,.5-4.5,0-3.4,.9-.8,1.3,.5-1.1-5-.4-9.6-.5-12.5l.5,2.7c-.3-1.6-.4-2.9-.5-4.3l-.6,1.6c0-1.6-.1-2.9,.2-2.9-.6-1.6-1.1,1.4-2-1.8,.2-2.1-1-6.4-.1-7.2,.3,6.6,.9-.8,1.6,4.8-.2-1.1-.3-2.4-.4-4,0-.2,.2,.2,.3,.6,.2-6.4-1.4-2.8-2-9.4,.6,.8,.9-1.6,.6-2.7,.2,2.6-.8,1.4-1.4-1,0-4.2-.8-4.5-.9-6.7v2.5c-.6-.8-.7-2.9-1.2-5.8,.4-.3,.6,2.6,.6,1.6-1.3-3.1,.1-7.4-1-11.9,.1-2.1,1-.3,1-2.2-1.3-5,.1-5.6-1.1-10.9-.5,1.6-.3,1.9-1.5-1.8l1.5,8.7-1.7-5.5c.3,2.6,1.1,5.5,1.1,7.1-.9-2.6-.7-2.4-1.1-1,.6-3.7-1.4-7.1-1.2-11.4h1.8c0-6.5-2.3-11.1-2.9-19.4v2.7c-.8-1-.7-5-1.3-7.6,.6,.2,.6-1.5,.8-2.7-.4,.2-.8-6-2.1-6.6l.3-3.7c-.6-6.6-2.8-7.3-3.6-13.6,.9,1.8,.9-1.1,2,3-.3-2.1-.5-4-.9-4,.2-1.3-1.7-5.7-1.5-7.7-.4-.8-1.1-1-1.4-3.4,0-.3,.3,0,.3,0-.3,0-1.1-3.6-1.3-1.4,.3-3.4-.6-7.9-1.5-12.3-1-4.4-2-8.6-1.9-11.6-1.3-4.5-2.8-9.9-4-14,.2,.2,.3,0,.4,.7-1.1-5.8-2.6-3-3.9-9.5,0-3.5,1.5,3.2,1.3,1.1,1.6-1.5-2.6-7.6-3.1-12.2l.5,1c-.5-3.5-3.4-7.7-5.6-12.9,0,0,.3,.2,.3,0-1.2-1.6-2.7-4-4.3-6.5-1.6-2.5-3.4-5.2-5-7.3,1.6,.9,1.7,1.9,1.8,.5-1.5-2-.6,1.2-3.6-2.6-.3-.7-.9-1.9-1.5-2.9-.6-1-1-2-.9-2.4l1.6,1.8c.5,.6,1,1.2,1.5,1.8-.2-.6-.5-1.3-.9-1.9-.4-.6-1-1.1-1.5-1.7-.3-.3-.6-.5-.8-.8-.3-.2-.6-.5-.9-.7-.6-.5-1.1-.9-1.5-1.4h.5c-.6-.8-1.3-1.2-1.9-1.7-.6-.4-1.1-.8-1.6-1.1-1-.6-1.9-1-2.8-1.4-.9-.4-1.8-.8-2.9-1.3-.5-.3-1.2-.5-1.9-.8-.7-.3-1.5-.7-2.4-1,.2,.2,.4,.4,.6,.6-2.2-.2-2.9-.6-3.7-1.1-.4-.2-.8-.4-1.4-.6-.6-.2-1.3-.4-2.4-.3-.3-.5-.7-.9-1.1-1.4-.4,0-.8,0-1.3,0-.5,0-1,0-1.6,0-.6,0-1.2,0-1.8,0-.6,0-1.3,.2-2,.3-1.4,.1-2.8,.5-4.1,.7-1.4,.3-2.7,.7-3.9,.9,1.3-.7,3.3-1.5,5.6-1.9,2.3-.5,4.7-.7,6.6-.8-.7,0-1.7-.1-2.7-.1-1.1,0-2.2,0-3.3,.2-1.1,.2-2.2,.3-3,.5-.9,.2-1.5,.5-1.8,.7,.5-.2,1.2-.4,1.8-.5,.6-.2,1.3-.2,1.8-.2-3.3,1.3-7.5,2.6-12.5,4.5,0-.6-.8-.7-2.1-.3-1.3,.4-3.1,1.1-5,2-3.8,1.8-7.8,4.2-10,4.6-1.9,1.5-3.8,2.9-5.8,4.3-1.9,1.4-3.8,2.9-5.8,4.3-2,1.4-4,2.9-6,4.6-1,.8-2,1.6-3.1,2.5-1,.8-2,1.8-3,2.7,4.1-1.3-2.3,2.2-.6,3.1-1.8,1.8-2.6,2.4-2.8,2.5l-6.3,4.7c-1.7,.9,1.4-2,1-2.1-4.1,3.9-2.2,1.1-5.2,3.5,1-.1-.7,2.1-3,4.3l3.7-2.7c-4.7,6.4-5.8,4-10.3,10.6l1.2-2.3c-2.5,3.2-9.6,11.6-10.8,15.7-.6,.4-1.6,.9-.6-.6-6.1,7.7-11.3,18.5-16,24.4v-.9c-.9,1.6-1,3.1-2.5,4.8,0-.2,0-.9-.5-.2-.4,.9-1.8,4.5-3.3,6.4,.2-.7,.4-1.3,.6-2-5.3,7.9-6.2,13.2-9.6,20.3-1.1-.6-5,5.7-6.8,9v-.2c-2.7,4.9-4.4,9.2-6.1,13.5-1.7,4.3-3.1,8.5-4.9,13.3-4,5.1-9,19.4-13.4,28.6,.8-1.4,.9,.6,.3,2.3-1.1,2.1-1.4,6.5-2.4,5.7l.3-.8c-1.7,1.3-3.2,6-4.5,9.6l1.3,1.1c-5.5,8.7-7.6,25-11.1,29.6-.3,2.4-1.2,5.3-1.5,7.7l-.8-.4c-1.1,3.2-1.8,5.6-2.6,8.2-.7,2.6-1.6,5.4-2.5,9.4l-.2-1.8c-1.2,4.5,.9,6.3-.2,10.5l-1.6,.9c-1.9,7.9-5,15.6-5.6,23.7-.2-.2-.5-.5-.2-1.8-.4,1.9-1.5,5.4-2.1,8.4-.6,3-.9,5.4,.1,4.9-1.1-.1-1.8,8.2-2.1,12.6l-.7-.8c.4,3.8,.6,4,0,9.1-.3,1.2-.9,.9-.3-.6-1.2,3.9,.2,3.3-1.1,8.1l-.2-1.9c-.8,4.1-.4,3.8-.2,6.2,0,1.3-.4,3.3-.9,5-.4,1.7-1,3.1-1.4,3.3,.4,.6,.6,3,0,5.4-.3,.3-.4-.6-.4-1.1-1.7,6.8-.5,10.4-2,15.1-.3,0-.5,.4-.6,.7,.8-5.5,1.4-10,1.4-9.5-.8-.1-1.5,4.3-2.1,.6,0,3.7,.5,10-.5,14.3-.1,.2-.2,.4-.3,.5v-.5c-.2,1-.3,1.9-.2,2.8-.3,1.4-.5,2.2-.7,3.6-.7,.4-1,5.1-1.3,7.3,.9,0,.4,2.8,1.4,.2-.1,.3,0-.4,0-1.9,0-.3,0-.7,0-1v.2c.2-1.5,.4-3.4,.7-5.5,.2,1.8,.3,3.7-.4,6.1,.4,1.2,.8,2.5,1,3.3-1.5,2.9-2.8,8.7-3.6,9.5-.2,3.4-.4,7.5-.6,11.2-.1,3.7-.1,7.1,.5,9.3,0,2-.6,2.2-.9,2.9,0-1.1,0-2.5-.1-3.1,0,3.9-.8,11.5,.3,12.5-.8,4.9-.8-2.8-1.1,3.9l-.3-.9c-1.3,6.6-1,12-.6,17.6,.2,2.8,.3,5.6,.3,8.7,0,3.1-.3,6.3-1,10,.2-1,.3-1.5,.5-1.7-1.7,16.7,0,34.5-1.7,51-.3,4.7,.4,5.2,.9,8.1l-.9,1,1.1,4.9c.8,6.9-2.1,12.1-.5,20.8l.6-1.1c0,3.2,.6,10-.1,9.5,.1,.3,.7,1,.4,2.3h-.5l1,7.8c-.1,6-1.9-.9-1.7,7.9,.3,3.3,1.7,9.2,2,8,0-1.3,.2-3.4,.6-3.5l.4,3c1.4,.5,2.9,2.7,3.6-4.6l-1.1-5.1,.6-1.7,.2,4.3c.5-2.5,0-4-.5-5.7,.3-.4,.6-1.1,.7-2.2l-1.5-5c.5-.6,1.2,2.2,1.4-1.2-.7-2.3-1.2,2.3-1.7-1.6,.6-2.5,1.1-1.8,.5-4.6,.3-.4,.6,.2,.8,1.3-.5-2.5-.3-6.7-1.1-8,.7-2.6-.4-8.6,.9-8.4-.3-.8-1.1-4.5-1.2-6.8,1.6,4.2,0-8.7,1.7-7.6-1.4-3.1-.7-11.4-1.4-17,.1,.3,.3,.9,.3,1.4,.1-3.1,.6-4.1,.9-6.1-1.2-.4-1.4-5.3-2.1-8,1.2-3.8,1.3,2.4,2.5,1.2-1,.2-.8-6.7-1.6-5.4,.8-2.9,.4-2.5,1.4-4-1.5-.5-.2-2.8-1.1-5.2,.9-4.3,1.4-1.1,1.1-5.8,.5-2.2,.9,2,.9,2Zm5.9-111.4h0c0,1-.2,1.8-.2,2.3,0-.5,.1-1.1,.2-2.3Zm1.3-9.3c-.2,1.1-.4,2.5-.6,4-.3,.3-.6-.1-.4-1,.1,.5,.6-1.6,1-3Zm-8.4,19c0-1.5,.3-2,.5-2.2,0,.7-.1,1.5-.2,2.6,0,0,0,.1,0,.2-.1-.2-.3-.3-.3-.6Z"/>
              <path class="uuid-19328dc0-a2d7-4d2a-ae84-3f5491a816a6" d="M761.1,440.1c0,.2,0,.3,0,.6,.1-.3,.2-.6,.3-.9,0-.2-.1-.4-.2-.6,0,.3,0,.5,0,.8Z"/>
              <path class="uuid-19328dc0-a2d7-4d2a-ae84-3f5491a816a6" d="M1044.1,443.8v-.2c0,.2,0,.3,0,.4,0-.1,0-.1,0-.2Z"/>
              <polygon class="uuid-19328dc0-a2d7-4d2a-ae84-3f5491a816a6" points="797.9 292.5 797.7 292.4 797.6 293.2 797.9 292.5"/>
              <path class="uuid-19328dc0-a2d7-4d2a-ae84-3f5491a816a6" d="M1041.1,495.6c0,0-.2,.3-.2,.7,0,0,.1-.3,.2-.7Z"/>
              <path class="uuid-19328dc0-a2d7-4d2a-ae84-3f5491a816a6" d="M1040.5,518l-.4,3.2c.2-1.4,.3-2.4,.4-3.2Z"/>
              <path class="uuid-19328dc0-a2d7-4d2a-ae84-3f5491a816a6" d="M1039.5,535.1c.1,.2,.2,.3,.3,.3h0l-.4-.3Z"/>
              <path class="uuid-19328dc0-a2d7-4d2a-ae84-3f5491a816a6" d="M1029,262.5c0-.2,0-.5-.1-.7-.3-1.5-.1-.5,.1,.7Z"/>
              <path class="uuid-19328dc0-a2d7-4d2a-ae84-3f5491a816a6" d="M1037.7,343.3c-.2-.9-.4-1.7-.5-2.6,0,1.4,0,2.6,.5,2.6Z"/>
              <path class="uuid-19328dc0-a2d7-4d2a-ae84-3f5491a816a6" d="M1016.3,172.7s0,0,0,0c0-.2,0-.4,0-.5v.5Z"/>
              <path class="uuid-19328dc0-a2d7-4d2a-ae84-3f5491a816a6" d="M1037,336.9c0,1.5,0,2.7,.2,3.8,0-1.2,0-2.6-.2-3.8Z"/>
              <path class="uuid-19328dc0-a2d7-4d2a-ae84-3f5491a816a6" d="M1035.2,609.4v.8s0,0,0,.1v-.9Z"/>
              <path class="uuid-19328dc0-a2d7-4d2a-ae84-3f5491a816a6" d="M1035.3,610.4v.9c0-.4,0-.8,0-.9Z"/>
              <path class="uuid-19328dc0-a2d7-4d2a-ae84-3f5491a816a6" d="M1035.4,613.2v-1.9c-.1,.7-.2,1.5,0,1.9Z"/>
              <path class="uuid-19328dc0-a2d7-4d2a-ae84-3f5491a816a6" d="M1037.1,586.8l-.3-.3c0,.1,.1,.2,.3,.3Z"/>
              <path class="uuid-19328dc0-a2d7-4d2a-ae84-3f5491a816a6" d="M1037.4,579.9c-.2,1.6-.9,4.1-.9,6.4l.2,.2c-.4-1.1,1-5,.6-6.6Z"/>
              <path class="uuid-19328dc0-a2d7-4d2a-ae84-3f5491a816a6" d="M1042.7,551.2l-.5,5.8c.4-1,.9-2.3,.8,.3,1.3-7.3-.8,1.5-.3-6.1Z"/>
              <path class="uuid-19328dc0-a2d7-4d2a-ae84-3f5491a816a6" d="M1043.8,533.3c0,3.1,.5,0,.7,.2-.2-2-.3-2.5-.7-.2Z"/>
              <path class="uuid-19328dc0-a2d7-4d2a-ae84-3f5491a816a6" d="M1043.8,403.2l.8,.3c-.2-2.4-.3,0-.8-.3Z"/>
              <polygon class="uuid-19328dc0-a2d7-4d2a-ae84-3f5491a816a6" points="1038.9 378.6 1038.5 380.9 1039.2 382 1038.9 378.6"/>
              <polygon class="uuid-19328dc0-a2d7-4d2a-ae84-3f5491a816a6" points="1043.6 363.7 1043.8 364.7 1043.3 360.7 1043.6 363.7"/>
              <path class="uuid-19328dc0-a2d7-4d2a-ae84-3f5491a816a6" d="M1018.8,146.5l-.8,.9c.5,1.6,1.6,1.7,.8-.9Z"/>
              <path class="uuid-19328dc0-a2d7-4d2a-ae84-3f5491a816a6" d="M974.7,64.2c-.8-.8-3.4-2.2-5.3-2.1,.5,.2,1.1,.3,1.6,.5,.5,.2,1,.4,1.4,.6,.9,.4,1.7,.7,2.2,.9Z"/>
              <polygon class="uuid-19328dc0-a2d7-4d2a-ae84-3f5491a816a6" points="798.5 266.4 798.8 264.5 797.9 267.9 798.5 266.4"/>
            </g>
            <g>
              <path class="uuid-19328dc0-a2d7-4d2a-ae84-3f5491a816a6" d="M1429.3,102.1c.3-.4-.2-.8-1.1-.3l-.3,1.2,1.4-.9Z"/>
              <path class="uuid-19328dc0-a2d7-4d2a-ae84-3f5491a816a6" d="M1421.9,103.3c-1,.9-2,2.3-.9,2.8,.8-1.4,1.2-1.1,2-2.7,1-.5,1.9-.4,1.8,0,.3-.4,1.6-.5,1.9-1.3-1.6-.2-3.3,.5-4.7,1.8-.5,0-.2-.4-.2-.6Z"/>
              <path class="uuid-19328dc0-a2d7-4d2a-ae84-3f5491a816a6" d="M1324.1,143.7l.7-.2c-.2,0-.4,0-.7,.2Z"/>
              <path class="uuid-19328dc0-a2d7-4d2a-ae84-3f5491a816a6" d="M1264,170c.4-.2,.6-.4,.6-.5-.4,.2-.7,.5-.6,.5Z"/>
              <path class="uuid-19328dc0-a2d7-4d2a-ae84-3f5491a816a6" d="M1253.4,173.6c.2,0,.4-.1,.6-.2-.3,0-.5,0-.6,.2Z"/>
              <path class="uuid-19328dc0-a2d7-4d2a-ae84-3f5491a816a6" d="M1324.1,143.7l-1.7,.4c0,.3,.9-.1,1.7-.4Z"/>
              <path class="uuid-19328dc0-a2d7-4d2a-ae84-3f5491a816a6" d="M1409.4,111.1c.3-.2,.6-.4,.8-.6-.3,.2-.5,.3-.8,.4,0,0,0,.1,0,.2Z"/>
              <path class="uuid-19328dc0-a2d7-4d2a-ae84-3f5491a816a6" d="M1350.2,131.3l.5-.2c0-.2,.2-.3,.2-.5l-.7,.8Z"/>
              <path class="uuid-19328dc0-a2d7-4d2a-ae84-3f5491a816a6" d="M1370.5,122.4c-.5,.2-.3,1-.3,1.4,.1-.4,.4-.7,.8-1,0-.2-.2-.3-.4-.5Z"/>
              <path class="uuid-19328dc0-a2d7-4d2a-ae84-3f5491a816a6" d="M1403.4,109.9l.5-.4c-.1,0-.4,.2-.5,.4Z"/>
              <path class="uuid-19328dc0-a2d7-4d2a-ae84-3f5491a816a6" d="M1335.6,137.5c0,0-.2-.2-.3-.2,0,0,.2,.2,.3,.2Z"/>
              <path class="uuid-19328dc0-a2d7-4d2a-ae84-3f5491a816a6" d="M785.5,423.2c0,0,0,0,0-.1,0,.1,0,.2,0,.1Z"/>
              <path class="uuid-19328dc0-a2d7-4d2a-ae84-3f5491a816a6" d="M761.2,432.5l.3-.2c0-.2,0-.3-.2-.4v.7Z"/>
              <path class="uuid-19328dc0-a2d7-4d2a-ae84-3f5491a816a6" d="M1234.3,181.3s0,0,0,0c.4-.3,.2-.2,0,0Z"/>
              <path class="uuid-19328dc0-a2d7-4d2a-ae84-3f5491a816a6" d="M1065.2,263.7c2.2-.3-2.7,2.4,.6,1.7-.4-.2,2-2.5-.6-1.7Z"/>
              <path class="uuid-19328dc0-a2d7-4d2a-ae84-3f5491a816a6" d="M1408.8,111.3c-.3,.1-.5,.3-.8,.4,.4-.1,.6-.2,.8-.4Z"/>
              <path class="uuid-19328dc0-a2d7-4d2a-ae84-3f5491a816a6" d="M1065.8,265.4h.3c-.1,0-.2,0-.3,0Z"/>
              <path class="uuid-19328dc0-a2d7-4d2a-ae84-3f5491a816a6" d="M1191.8,201.7c.2,0,.4,.1,.6,.1,0,0-.2-.1-.6-.1Z"/>
              <path class="uuid-19328dc0-a2d7-4d2a-ae84-3f5491a816a6" d="M1224.1,187.9l-.8,.3c.3,0,.6-.2,.8-.3Z"/>
              <path class="uuid-19328dc0-a2d7-4d2a-ae84-3f5491a816a6" d="M1175.8,210.6c-.5,.1-.7,.1-1.2,.5,0,0,.1,0,.2,0,.2-.2,.4-.4,1-.5Z"/>
              <path class="uuid-19328dc0-a2d7-4d2a-ae84-3f5491a816a6" d="M1158.6,218.8c.1,0,.3,0,.4,0,.2,0,.4-.2,.5-.3l-.9,.3Z"/>
              <path class="uuid-19328dc0-a2d7-4d2a-ae84-3f5491a816a6" d="M835.4,394.3c-.5,0-.8-.1-1.1-.2,.5,.4-1.8,1.9,1.1,.2Z"/>
              <path class="uuid-19328dc0-a2d7-4d2a-ae84-3f5491a816a6" d="M1409.2,110.7c0,.2-.1,.4-.4,.6,.2,0,.4-.2,.6-.3,0-.1,0-.3-.2-.3Z"/>
              <path class="uuid-19328dc0-a2d7-4d2a-ae84-3f5491a816a6" d="M1177.9,216.9l-2.8,1.2c.8-.3,1.8-.7,2.8-1.2Z"/>
              <path class="uuid-19328dc0-a2d7-4d2a-ae84-3f5491a816a6" d="M954.8,328.7l-.6,.4c.2-.1,.4-.2,.6-.4Z"/>
              <path class="uuid-19328dc0-a2d7-4d2a-ae84-3f5491a816a6" d="M1167.1,222.1c-.6,0-1.2,0-1.8,.2,0,.1-.2,.2-.2,.3l2-.6Z"/>
              <path class="uuid-19328dc0-a2d7-4d2a-ae84-3f5491a816a6" d="M834.3,394s0,0,0,0c0,0,0,0,0,0Z"/>
              <path class="uuid-19328dc0-a2d7-4d2a-ae84-3f5491a816a6" d="M818,405.6c2.5-1.4,.6-1.6,.9-2.5,2.8-2,1.8,0,3.1-.2,1.7-1.3,2.6-3,4.1-3.8,.2,.1,.5,0,.3,.4,1.5-1.9,5.8-3.4,7.6-5.6,.2,0,.4,0,.4,0-.6-.3-1-.7-1.1-1.1,1.1-.7,1.7-1.8,2.5-1.4-.7,.4-.6,.7-.8,1l1-.9c1.6,.3-1.4,1.2-1,1.9,2.1-1.6,4.4-3.9,6.3-4.6,.9,.7-3.9,2.6-1.1,2.1l-2.9,1.2c2.9,.2-1.7,.8,1,1.3,3.7-1.8,3.7-2.7,7.5-4.5,.5-.9-.7-.6-.1-1.5,4.6-3.7,5.3,0,8.3-3.3,.6-1.1,.4-2.5,3.4-3.4l-.3,1.5c3.5-1.8,1.2-2.6,5.2-3.9-.4,.8-2.5,1.9-2,1.7,2.8-.5,1.3-1.5,3.2-2.5l.9,.7c3.6-2.2,7.3-5.1,11.3-7.6,0,.4-.6,1.1,.5,.8,4.9-3.3,11.1-6,16.4-8.2l1.5-1.8c.4-.2,1-.1,.6,.3,2.1-.8-.2-.5,.6-1.4,1.1-.7,1.7-.4,1.1,.3,3.1-2.5,9-6.8,13.1-7.9l-.6,.6c3-1.2,2.3-3.3,5.3-4l-.4,.4c6.3-3,12.7-7.4,18-8.8,.3-1.6,6.4-2.8,5.9-4.5,3.9-1.1,3.1-.3,8.3-2.4,1.4-.6,1.5-2,3-3.1l.5,.8,1.8-2,1.7,.3,1.4-1c-.6,.3-1.5,.3-1.5,0,2.2-1.7,6.1-2.6,6.4-2.2l5.3-3.7c0,.4-.8,1-1.5,1.6,2.6-2.5,1,.6,3.4-1.7-.5,0,0-.6,0-.8,1.6-.2,4.8-1.9,7-3.3l-.2,.8c4.3-2.1,8.8-4.9,13.5-7.4-1.8,.6-2-.6-.6-1.4l1,.6c.6-1-1.6,.4-.1-1.2,1.8-.8,1.7,.4,.8,1.2l2-1.4c.3,.2-.2,.6-.1,1,.6-1,4.2-1.1,5-2.7l.3,.2c4.7-2.5,6.7-3.9,10.6-6-.3-.8,1.3-1.4,2.1-2.6,3-1.2,6.4-2.3,9.8-4.1,2.2-1.6,.4-1,1.2-2,.5,.6,3.9-1.2,2.4,.2,4.1-2.2,5.2-2.8,10.1-6.1-.7,0-1.4,.2-1.2-.2,.9-.6,2.3-.8,2.3-.4l-.2,.2c5.3-4,14.5-5,18.5-8.8l-.2,.2,4.5-3.2c2.3-1-1.1,1.2,.8,.8,4.7-3.8,8.4-4,12.3-6.9,4.4,.3,11.8-6.1,16.9-7.1l-.5-.3c.9-1.1,1.5-.4,2.5-.8-.3-.3-1.5,.2-.9-.4,9.6-5.5,20.8-9.4,31.1-14,3.8-1.7,.9-3.5,6.1-4.7l-.9,1.5c3.5-2.4,7.3-4.3,11.1-6.1,3.8-1.8,7.7-3.6,11.1-5.8-.3,.4-.2,.7-.9,1,1.9-.1,5.8-2.7,5.5-3.3,1.2-.5,.5,.3,1.3,.3,1.7-.4,3.5-2.7,4.7-2.5,.2,0-.3,.4-.6,.6,.9-.8,4.8-2.2,3.4-2.5,2.9-1,5.1-2.9,7.5-3.5,1-1.5,4.9-1.9,4.8-3.3,.4,1.3,5.3-1.4,6.8-2.8-.4,.6,1.7-.3,1.3,.5,2-1,3.7-2.1,3.1-2.5,4.4-.3,6.9-4.7,9.8-3.8,5.6-3.5,10.9-6.5,16.1-9.3,.4,1.3-5.9,2.9-5,4.1,4.8-2.9,7.3-5.3,12.4-7.4,1.4-.4-.5,.9-.8,1.3,4.8-2.9,9.9-4.5,14.1-7.2,0,.1-.4,.5-.8,.8,.9-.5,2.2-.8,1.8-1.3l-.8,.6c-1.8-.2,2.8-3.3,2.7-3.8-.8,2.3,4.7-1.7,3.2,1.5,.5-.4,1.2-1,.8-1.3,.9-.3,1.3-.2,.6,.6,3.1-1.8,1.6-1.9,4.5-3.2,.1,.3-.4,.6-.6,1.1,1.2-1.2,2.5-2.4,5-3.3,0,.2,.3,.3-.4,.6,4.2-2,6.5-4.7,11.4-6.3-.8,1.8,1.7-.3,2.5,.6l2.3-1.4h-1.2c2.2-1,3.8-2.6,5.8-3.1l-1.4,1.2,4-2-2.5,.7c2-1.5-.8-1.2,2.2-2.2-.5,.4,2.2-1,3.6-.9h0c.9-.8,1.9-1.7,3.6-2.1,.6,.1,.2,1.3,.5,1.4,.7-1.3,5-2.5,5.9-4.1-.4,.4-.1,1,0,1l.6-1.1c1.1-.2,1.3-.2,1.3,.3,3.1-1.2-1.5-.9,2.3-1.9-.3,.2,0,.2-.6,.6,3.8-1.3,6.8-3.6,10.3-4.8,1.4,.6-2.8,1.6-1.3,1.9,4.7-2.4,9.4-5.7,14.2-7.5l-.9,.3c0-1.7,3.8-.8,5.8-2.5-.5,.4-.4,1.1-.3,.9,3.3-1.2,6.4-3.2,11-5.8l-.4,.6c2-.5,5-2,7.1-2.7,.4-.6,1.6-1.1,.7-1.3,7.2-.6,11.4-6.5,17.8-7.1-.7,.3-1.4,1-.9,.8l4.6-2.4c-.7-.5-.8-.1-2-.2,.4-.6,1.7-1.5,2.8-2-2,1.3,.5,1,1.5,1-.2-.1,0-.5-.2-.6,3,0-.1-1.5,3.6-2.2v.4c1.2-.7,2.1-1.7,3.5-2.2,.9,.5-1.2,.9-1,1.6,1.9-.9,3.2-3,5.2-3.1-.7,.6-1.9,1.1-2.6,1.6,2.3,0,2.4-.3,3.9-.7h-.1l3.4-1h-.9c1.6-2.8,4.7-2.3,7.4-5-2.6,2.6-.2,.9-.1,1.9,.9-.1,2.3-.4,2,0,1.2-1.3,2.8-.6,4.5-2.5,.2,.2,1.6-.7,1.6,.1,1.9-1.1-.7-.3-.6-.7,2.7-2.3,7.7-2,11.6-5.1,3.6-2.1,3.9-3.3,7.3-5.3,1.4,0-.6,1.4-.6,1.4,2.1-.4,3.5-1.1,5.2-2.2-.3,.4,.2,.4,.9,.5,1.4-.7,.6-1.4,2.7-1.8-.2,.4-.4,1.1-1,1.7,1.6-1,3.1-2.2,4.8-3.2,.7,.3-.8,1.2-1.3,1.7,1.9-1.1,5-2.6,5.3-3.6l-1.4,.3c.7-.3,.6,.5,.2,.8-1.5,1.3-2.6,.8-2.8,.6l1.2-.7c-2-1-5,2.4-7.6,3.4l.6-1.6-2.2,2.1c-.7,0-1.3-.5-.1-1.2-2.1,.2-1.4,1.1-3.3,1.1-.2,0-.2-.1,0-.2l-1.6,1.1c.2-.4-.6-.7,.5-1-3.5,.7-4.8,3-6.4,2.7l.2-.2c-4.3,2.3,0,1-3,3.4l-3.1-1.1v1c-.6,.2-1.5,.5-1.5,0-1.5,1.3,.4,.2-.3,1.2-2.5,.2-5.9,3-7,1.8-.5,1,2.3-.4,.2,1-1.3-1.2-2.6,1.4-4.9,1.6,.3-1,2.4-1.4,0-1.2-.7,1.8-4,1.4-5.6,2.4,.4,1-3.5,2-6.2,3.6,0-.4-5.6,1.8-8.4,2.6v-.2c0,1.2-2.9,2.2-4.8,3.3-.2-.6,0-1,1-1.8l-1.9,.8c-.3,.5-.8,.9-2,1.6v-1c-2.3,1.1-4.5,3-7.9,4,.1,.8,3.4,.8,.2,2.8-.3-.3-.7-.9,.1-1.5-.3,.2-.9,.8-1.5,.9l1.1-1.2c-1.6,.4-.5,.9-1.7,1.3-.2-.6-1,0-1.1-.5,.3-.2,1.1-.2,1.5-.6-1.4,.5-3.1,.9-3.8,.7,.2,.3,.3,.7-.6,1.2-2.5,1.1-1.1-.3-2.7,0-.4,.6-2.2,1-1.9,1.8-.7,.3-1,0-1.4,0-1.1,.9-6,2.8-4.1,3h.4c0,0-.1,0-.2,0h0c-3.9,2.7-9,3.4-13,5.6v-.3c-2.5,1.4-5.6,2.6-7.1,4-.7,.3-2,.3-1.8-.2-1.8,1.1-1.9,1.4-4.8,2.2,1.7-1.3-.8-.1,1.8-1.2-2.6,.9-3.3,.7-5.6,2.6,.6-1.1-2.2,0-3.3,.7l2-.3c-1.3,.7-2.5,1.2-3.7,1.6l.2-1.2c-5.6,1.2-8.3,6-12.9,5.9-1,1.2,2.9-.8,2.1,.5-2.4,.9-5.4,.7-6.1,1-3.4,.9-2.4,2.7-5.9,3.8,.6,.1,1.4,.8-1,2.2-2.4,.9-3.5,0-2.1-1,.5-.3,.9-.3,.9-.2,.7-.5,1.6-1,.5-1l-.2,.5c-1.3,.2-4.5,1.7-4,.8-1.6,1.1-.5,.9,.9,.4-3.2,.9-4.7,2.1-7.9,3.2,.6,0,1.2,.1,.7,.3-4.7,1.7-1.7,1.5-4.7,3.1-2,.3,0-1.5-2.8,.4-2,.5-.8-.7-.2-1.3-2.5,1.9-5.4,2-7,2.6l1.3-.9c-.8,.6-1.5,.9-2.3,1.2l1.1,.3c-.9,.3-1.6,.6-1.8,.3-.7,.8,1.2,.8-.3,2.2-1.3,.2-3.3,2-4.1,1.3,3.8-1.4-.8-.7,2.2-2.2-.5,.4-1.3,.7-2.2,1-.2,0,0-.2,.3-.4-3.8,.8-1.1,1.7-4.7,3.3,.2-.7-1.3-.5-1.8-.2,1.5-.7,1.1,.5,0,1.5-2.5,.7-2.4,1.4-3.6,1.9l1.5-.5c-.2,.7-1.4,1.2-3,2.1-.3-.3,1.3-.9,.7-.8-1.4,1.7-4.4,1-6.6,2.7-1.3,.2-.5-.9-1.6-.6-2.5,1.9-3.3,.8-6,2.6,1.1,.3,1.2,0-.5,1.6l4.6-2.7-2.6,2.4c1.4-.7,2.9-1.8,3.8-2.1-1.2,1.2-1.1,1-.2,1.2-2.4,0-3.7,2.4-6.2,2.8l-.7-1.6c-3.8,.9-5.7,3.7-10.4,5.4l1.6-.4c-.3,.9-2.7,1.4-4,2.3-.1-.6-1.1-.4-1.9-.4,.3,.4-3.3,1.5-3.2,2.8l-2.3,.2c-3.7,1.4-3.4,3.5-6.9,4.9,.8-1.1-1-.7,1.1-2.2-1.2,.5-2.2,.9-2.1,1.3-.8,0-2.9,2.2-4.2,2.2-.4,.5-.3,1.1-1.6,1.7-.2,0-.1-.3-.1-.3,.1,.3-1.9,1.3-.4,1.4-4.3,0-9.9,4.9-13.6,5-2.4,1.4-5.4,3-7.6,4.2,0-.2-.1-.3,.3-.4-3.4,1-1.2,2.5-5,3.6-2.2,0,1.7-1.4,.4-1.2-1.3-1.5-4.2,2.3-7.1,2.5l.5-.4c-2.1,.3-4.2,2.8-7.2,4.2,0,0,0-.2-.1-.3-1.6,1.9-5.4,4.1-8.1,5.8,.6-1.1,1.1-1,.2-1.4-1.2,.7,.9,.9-1.6,2.4-1,0-3,.6-3.7,0l2.4-1.2c-1.7-.3-3.1,1.6-4.5,2.1v-.5c-3.7,2-3.2,3.1-7.3,5h.6c-1.7,2.2-2.1,.4-3.9,2.3l-1.2-.7c-1.3,1-4.6,3.5-7,5,1.1-1.5,3.9-3.4,5.6-4.8-1.4,.7-4.8,2.5-5.3,3.4,.5-.4,1.1-1,1.8-1.1-1.3,1.7-3.5,3.3-6.3,4.6-.5-2.3-7.7,3.1-10.5,2.6-4.7,3.3-10.1,4.7-15.9,7.8,2.9,.5-1.7,.9-.5,2.4-1.3,.8-1.8,1-2,1l-4.6,1.1c-1.2,0,1.1-1,.8-1.3-3.1,1.4-1.6,0-3.8,.5,.7,.4-.6,1.4-2.4,2l2.8-.5c-3.7,3-4.3,.4-8.1,3.4l1.1-1.2c-2,1.4-8,4-9.4,6.4-.5,0-1.2-.2-.3-.8-5.2,2.4-10.7,7.3-15.1,8.5l.2-.6c-.9,.6-1.3,1.6-2.7,1.8,0-.2,.2-.6-.3-.4-.4,.4-2.2,2-3.6,2.4l.9-1c-5.3,2.1-7.1,5-11.2,7.5-.6-1.2-4.7,.5-6.8,1.3v-.2c-5.9,2.9-9.4,6.2-14.5,9.4-4,.5-11.6,5.4-17.3,7.5,.9-.2,.3,1-.5,1.6-1.4,.4-3.1,2.6-3.4,1.5l.5-.2c-1.5-.5-4,1.1-6,2.1l.4,1.6c-6.3,.8-13.4,8.1-17.2,7.8-1.1,1-2.7,1.9-3.7,2.9l-.3-.8c-3.6,1.7-5.4,2.5-9.7,5l.6-1c-2.5,1.3-1.9,3.8-4.2,5.1l-1.3-.8c-4.3,2.3-9.1,3.7-12.8,7,0-.2,0-.6,.6-1-2,1.1-8.2,3.5-6.6,4.6-.6-1-4.5,2.3-6.5,4v-.9c-1.5,2-1.4,2.3-4,4-.7,.3-.9-.3,0-.6-2.4,.8-1.3,1.6-4.1,2.6l.7-1c-2.2,1.1-1.9,1.3-2.8,2.5-1.2,1.1-4.3,2.1-5,1.6,0,.6-1,1.8-2.4,2.3-.3-.2,0-.6,.3-.8-4,1.5-5,3.9-7.9,4.6-.2-.2-.4-.2-.7-.2,2.9-1.6,5.3-2.9,5.1-2.7-.4-.7-2.8,.5-1.4-1.5-1.6,1.6-4.2,4.5-6.7,5.4-.1,0-.3,0-.4,0l.2-.2c-.6,.2-1,.6-1.4,.9-.8,.3-1.3,.5-2,.9-.6-.4-2.9,1.2-4.1,1.8,.5,.7-1.1,1.4,.7,1.2-.2,0,.2-.2,.9-.7,.2-.1,.4-.2,.5-.4,0,0,0,0,0,.1,.8-.4,1.8-1,2.9-1.7-.7,.9-1.5,1.7-3,2.1-.3,.8-.7,1.7-1,2.1-2.2-.1-5.6,1-6.4,.6-3.4,2.4-8.3,5-9.8,7.6-.9,.7-1.4,.3-1.9,.3,.5-.5,1.2-.8,1.4-1.2-1.8,1.5-6,3.5-5.9,4.7-2.8,1,.9-1.7-2.5,.4l.3-.6c-7.8,2.4-9.9,8.8-18.6,11.2,.6-.2,.9-.3,1.1-.2-9.2,4.1-17.6,11-26.9,14.6-2.6,1.1-2.5,1.9-3.7,3.2l-1-.5-2,2.4c-3.2,2.8-7.4,1.7-11.2,5.6l.9,.2c-1.7,.9-5,3.3-5.1,2.6-.1,.2-.2,.9-1,1l-.3-.4-3.6,3c-3.3,1.5-.5-1.9-5.1,.7-1.6,1.1-4.1,4-3.3,3.9,.7-.4,1.9-.8,2.2-.4l-1.4,1.1c.4,1.4,0,3.3,4.2,1.9l2.2-2.3h1.2l-2.2,1.4c1.6-.2,2.1-1.1,2.8-2,.4,.2,.9,.2,1.5,0l1.9-2.7c.6,.3-.6,1.6,1.3,.9,.9-1.2-1.8-.4,0-1.9,1.6-.2,1.5,.5,2.7-.9,.4,.2,.2,.6-.3,1,1.1-1.1,3.4-2.2,3.7-3.2,1.7,0,4.4-2.8,4.9-1.5,.3-.5,1.8-2.2,3-3-1.4,2.7,4.6-2.6,4.9-.7,.9-2.2,5.6-4,8.1-6.4-.1,.2-.3,.6-.6,.7,1.7-.8,2.4-.8,3.6-1.1-.4-1.1,2.1-2.8,3.1-4.2,2.6-.2-.5,1.9,.6,2.5-.6-.8,3-2.8,2-3.1,1.9-.3,1.5-.5,2.8,0-.5-1.4,1.3-1,2.1-2.5,2.6-.6,1.3,.9,3.5-.9,1.4-.3-.5,1.4-.5,1.4Zm57.3-35.1h0c-.5,.3-.9,.6-1.2,.7,.2-.2,.6-.4,1.2-.7Zm4.9-2.8c-.6,.3-1.4,.7-2.2,1.2-.3-.2-.3-.5,.2-.8-.2,.3,1.1-.2,1.9-.4Zm-13.3,.7c.7-.5,1.1-.5,1.3-.4-.4,.2-.8,.5-1.3,.8,0,0,0,0,0,.1,0-.2,0-.4,.1-.5Z"/>
              <path class="uuid-19328dc0-a2d7-4d2a-ae84-3f5491a816a6" d="M866.1,370.2c-.1,0-.1,.1-.3,.2,.2,0,.4,0,.6,0,0-.1,.1-.3,.1-.4-.1,0-.3,.2-.4,.2Z"/>
              <path class="uuid-19328dc0-a2d7-4d2a-ae84-3f5491a816a6" d="M1324.9,143.5h-.1c.1,0,.2,0,.3,0,0,0,0,0-.2,0Z"/>
              <polygon class="uuid-19328dc0-a2d7-4d2a-ae84-3f5491a816a6" points="949.4 332 949.3 331.8 949 332.2 949.4 332"/>
              <path class="uuid-19328dc0-a2d7-4d2a-ae84-3f5491a816a6" d="M1354.5,133.6c0,0,.2,0,.5,0,0,0-.2,0-.5,0Z"/>
              <path class="uuid-19328dc0-a2d7-4d2a-ae84-3f5491a816a6" d="M1366.9,128.5l1.9-.5c-.8,.2-1.4,.3-1.9,.5Z"/>
              <path class="uuid-19328dc0-a2d7-4d2a-ae84-3f5491a816a6" d="M1376.5,124.8c0-.2,0-.3,0-.4h0v.4Z"/>
              <path class="uuid-19328dc0-a2d7-4d2a-ae84-3f5491a816a6" d="M1227.1,192.7c-.1,0-.2,.1-.3,.2-.8,.5-.2,.2,.3-.2Z"/>
              <path class="uuid-19328dc0-a2d7-4d2a-ae84-3f5491a816a6" d="M1270.7,170.5c-.4,.4-.8,.7-1.3,1,.8-.3,1.4-.6,1.3-1Z"/>
              <path class="uuid-19328dc0-a2d7-4d2a-ae84-3f5491a816a6" d="M1178.2,216.8s0,0,0,0c-.1,0-.2,0-.3,.1h.3Z"/>
              <path class="uuid-19328dc0-a2d7-4d2a-ae84-3f5491a816a6" d="M1267.4,172.4c.9-.2,1.5-.5,2.1-.9-.7,.2-1.5,.5-2.1,.9Z"/>
              <path class="uuid-19328dc0-a2d7-4d2a-ae84-3f5491a816a6" d="M1417.9,107.6l.5-.2s0-.1,0-.1l-.5,.3Z"/>
              <path class="uuid-19328dc0-a2d7-4d2a-ae84-3f5491a816a6" d="M1418.3,107.3l.5-.3c-.2,0-.4,.2-.5,.3Z"/>
              <path class="uuid-19328dc0-a2d7-4d2a-ae84-3f5491a816a6" d="M1419.8,106.4l-1,.6c.4-.2,.8-.3,1-.6Z"/>
              <path class="uuid-19328dc0-a2d7-4d2a-ae84-3f5491a816a6" d="M1405.1,112.6v.3c0,0,0-.2,0-.3Z"/>
              <path class="uuid-19328dc0-a2d7-4d2a-ae84-3f5491a816a6" d="M1401.3,114.3c.9-.3,2.5-.4,3.7-1.1v-.3c-.4,.7-3.1,.5-3.7,1.4Z"/>
              <path class="uuid-19328dc0-a2d7-4d2a-ae84-3f5491a816a6" d="M1383.9,117.6l3.3-1.1c-.7,0-1.6-.2-.2-.8-4.4,.8,1.1,.3-3.1,2Z"/>
              <path class="uuid-19328dc0-a2d7-4d2a-ae84-3f5491a816a6" d="M1373.8,121.4c1.7-.9-.2-.4-.2-.6-1,.7-1.2,.9,.2,.6Z"/>
              <path class="uuid-19328dc0-a2d7-4d2a-ae84-3f5491a816a6" d="M1302.3,152.7v-.8c-1.4,.7,0,.3,0,.8Z"/>
              <polygon class="uuid-19328dc0-a2d7-4d2a-ae84-3f5491a816a6" points="1290.3 162.5 1291.8 162.3 1292.1 161.4 1290.3 162.5"/>
              <polygon class="uuid-19328dc0-a2d7-4d2a-ae84-3f5491a816a6" points="1280.1 161.1 1280.6 160.7 1278.5 162 1280.1 161.1"/>
              <path class="uuid-19328dc0-a2d7-4d2a-ae84-3f5491a816a6" d="M1161.4,216.7l.8,.7c.8-.6,.5-1.6-.8-.7Z"/>
              <path class="uuid-19328dc0-a2d7-4d2a-ae84-3f5491a816a6" d="M1110.9,242.3c-.8-.2-2.3,.3-3,1.1,1.2-.5,2.5-.7,3-1.1Z"/>
              <polygon class="uuid-19328dc0-a2d7-4d2a-ae84-3f5491a816a6" points="959.1 318.2 960 317.4 958.2 318.6 959.1 318.2"/>
            </g>
          </g>
        </g>
      </g>
    </g>
  </g>
</svg>