<?xml version="1.0" encoding="UTF-8"?>
<svg id="Capa_1" xmlns="http://www.w3.org/2000/svg" version="1.1" viewBox="0 0 421.31 368.41">
  <!-- Generator: Adobe Illustrator 29.1.0, SVG Export Plug-In . SVG Version: 2.1.0 Build 142)  -->
  <path d="M403.43,122.67c-26.45-22.03-59.87-17.42-86.34,1.68-16.46,11.88-31.07,35.92-50.65,41.35-4.67,1.3-9.33,1.34-14.03,1.63,6.73-2.75,11.01-8.26,11.01-8.26.68-.44,7.55-8.14,8.58-9.42,14.19-17.74,22.88-43.2,21.07-66.01-1.65-20.78-14.77-33.01-7.31-56.24,8.01-24.95,43.55-16.79,41.28,7.28-.99,10.52-11.04,16.45-20.76,14.09-.97-.24-1.96.26-2.34,1.19-.48,1.17.24,2.5,1.48,2.74,39.62,7.71,38.57-48.99,1.11-52.51-32.18-3.02-42.86,30.09-40.48,56.47.67,7.47,4.19,15.67,4.86,23.14,1.68,18.58-8.16,37.65-20.23,51.03-1.14,1.27-4.51,5.31-6.28,7.53,0-28.53,15.75-49.98,1.1-79.56-17.79-35.93-60.06-29.59-72.63,7.12-8.94,26.09,1.78,38.55,3.63,62.89.23,3.05.28,6.15.17,9.27-1.81-2.27-4.96-6.04-6.06-7.25-12.07-13.38-21.91-32.45-20.23-51.03.67-7.46,4.19-15.66,4.86-23.14C157.61,30.28,146.94-2.83,114.76.19c-37.46,3.52-38.51,60.22,1.11,52.51,1.24-.24,1.96-1.57,1.48-2.74-.38-.92-1.37-1.42-2.34-1.19-9.72,2.36-19.77-3.57-20.76-14.09-2.27-24.07,33.27-32.23,41.28-7.28,7.46,23.24-5.66,35.46-7.31,56.24-1.82,22.81,6.88,48.26,21.07,66.01,1.03,1.28,7.9,8.98,8.58,9.42,0,0,4.44,5.71,11.37,8.41-29.85,1.35-44.15-27.97-65.69-43.52-26.04-18.81-59.03-22.98-85.19-1.75-25.4,20.61-26.39,70.18,9.44,78.5,18.61,4.32,41.67-10.11,33.27-30.25-.87-2.09-4.27-6.37-7.2-7-1.53-.33-2.46,1.58-1.35,2.68,8.68,8.6,4.56,23.35-7.87,26.37-37.14,9-45.71-52.1-2.82-62.82,47.84-11.96,60.88,43.63,96.13,61.88,2.93,1.52,12.7,6.25,15.3,4.75-9.79,10.52-22.37,17.94-37.26,19.74-30.89,3.74-54.97,6.93-73.39,35.61-18.83,29.31-10.91,76.32,30.56,72.56,15.22-1.38,24.15-18.19,16.48-31.08-.68-1.14-1.94-1.87-3.26-1.74-3.32.34,1.26,5.54,1.26,9.28,0,5.17-5.13,13.57-10.58,14.44-29.48,4.72-35.47-29.14-20.27-49.27,23.72-31.43,55.09-14.48,85.61-22.39,13.93-3.61,25.57-11.2,37.21-19.28,1.52,1.92-9.15,21.28-11.18,24.31-10.67,15.96-28.24,25.46-37.62,42.38-16.94,30.55-1.76,81.42,39.29,77.29,18.83-1.89,34.73-22.41,24.36-40.33-.59-1.03-3.02-4.19-5.3-5.91-1.55-1.17-3.58.51-2.71,2.25,1.35,2.69,3.92,4.97,4.69,7.97,6.81,26.49-36.63,37.05-47,8-14.59-40.86,26.24-51.63,46.99-75.96,8.42-9.88,12.62-19.37,18.4-30.59.53-1.04-.53-1.89,2.08-1.42,3.53,10.98,10.95,23.16,18.5,32.01,20.53,24.09,57.87,32.93,48.24,72.21-7.83,31.94-52.99,24.61-48.66-2.66.71-4.43,5.37-7.91,5.95-11.05,1.02-5.46-7.87,3.59-8.86,5.15-11.1,17.46,5.97,38.48,24.35,40.33,38.95,3.92,54.87-42.16,41.67-72.67-8.83-20.4-30.08-30.71-41.6-49.4-1.75-2.85-10.94-20.14-9.57-21.92,10.6,7.84,22.17,14.83,34.99,18.5,30.79,8.8,62.88-7.94,86.97,22.03,9.93,12.35,14.62,35.42-.04,45.91-15.94,11.41-36.59,1.4-26.96-17.94-3.97-5.04-7.55,4.64-7.92,8.12-.99,9.35,6.01,20.15,15.12,22.71,21.18,5.95,42.27-10.81,44.71-31.93,4.11-35.51-24.07-63.94-56.47-72.32-19.44-5.03-33.65-.52-51.95-12.05-4.37-2.75-8.59-6.62-12.51-11.2,1.12.76,2.17,1.15,3.09,1.03,3.59-.48,13.54-5.89,17.06-8.05,31.93-19.59,44.84-70.05,90.89-59.51,40.85,9.35,37.63,67.43,1.29,63.7-10.57-1.09-19.9-11.24-15.25-21.25,1.58-3.41,2.61-4.39,4.85-6.52.84-.79-.16-2.24-1.28-1.96-6.35,1.56-10.05,9.86-9.74,16.1.84,16.93,20.3,24.75,34.97,21.17,35.54-8.66,35.06-57.16,9.98-78.04Z"/>
</svg>